<svg width="100%" height="100%" viewBox="0 0 320 240" preserveAspectRatio="xMidYMid meet" xmlns="http://www.w3.org/2000/svg"><title>Kitchen Herb Garden paint-by-number map</title><g class="paint-regions"><path class="paint-region" data-region-id="0" data-number="1" data-color="#0e2e39" fill="#0e2e39" fill-rule="evenodd" stroke="#716a64" stroke-width=".45" stroke-linejoin="round" d="M0 0H36V3H35V48H36V98H35V99H34V100H33V101H31V102H30V103H29V104H28V105H27V108H26V109H25V110H24V113H23V117H24V118H26V117H27V116H30V115H31V116H33V117H36V119H35V120H30V121H28V122H27V123H25V124H24V125H23V127H22V129H21V131H20V132H19V137H18V142H19V147H20V149H23V147H24V146H25V145H27V144H29V143H31V142H34V141H35V155H33V156H18V157H7V158H0V124H5V123H10V122H14V121H20V120H21V118H20V117H7V118H0Z"/><path class="paint-region" data-region-id="1" data-number="1" data-color="#0e2e39" fill="#0e2e39" fill-rule="evenodd" stroke="#716a64" stroke-width=".45" stroke-linejoin="round" d="M43 0H52V17H53V22H52V31H53V68H52V86H49V87H46V88H45V89H43Z"/><path class="paint-region" data-region-id="2" data-number="1" data-color="#0e2e39" fill="#0e2e39" fill-rule="evenodd" stroke="#716a64" stroke-width=".45" stroke-linejoin="round" d="M280 0H291V8H290V11H291V29H292V46H291V62H292V88H291V90H290V89H289V88H287V87H284V86H282V85H281V84H280V82H281V81H282V80H284V79H287V77H286V75H285V74H283V73H281V33H280V28H281V6H280Z"/><path class="paint-region" data-region-id="3" data-number="1" data-color="#0e2e39" fill="#0e2e39" fill-rule="evenodd" stroke="#716a64" stroke-width=".45" stroke-linejoin="round" d="M99 72H100V70H103V67H104V66H107V71H106V73H105V74H103V77H104V78H102V77H101V75H100V74H99Z"/><path class="paint-region" data-region-id="4" data-number="1" data-color="#0e2e39" fill="#0e2e39" fill-rule="evenodd" stroke="#716a64" stroke-width=".45" stroke-linejoin="round" d="M136 82H137V80H138V78H139V77H141V76H143V77H142V80H140V82H139V84H140V86H139V87H138V88H137V89H136V84H137V83H136Z"/><path class="paint-region" data-region-id="5" data-number="1" data-color="#0e2e39" fill="#0e2e39" fill-rule="evenodd" stroke="#716a64" stroke-width=".45" stroke-linejoin="round" d="M111 82H116V83H117V84H118V85H121V86H122V87H123V88H125V87H126V88H127V89H129V90H131V91H132V92H131V95H130V98H129V100H128V101H127V104H125V103H124V101H123V102H122V99H121V98H120V97H119V96H117V97H116V100H115V93H113V95H111V93H112V92H113V91H116V92H118V93H119V94H122V90H121V89H120V88H118V87H115V86H112V85H111Z"/><path class="paint-region" data-region-id="6" data-number="1" data-color="#0e2e39" fill="#0e2e39" fill-rule="evenodd" stroke="#716a64" stroke-width=".45" stroke-linejoin="round" d="M135 100H136V99H138V98H139V96H140V94H141V93H143V96H142V97H141V101H138V104H137V106H135Z"/><path class="paint-region" data-region-id="7" data-number="1" data-color="#0e2e39" fill="#0e2e39" fill-rule="evenodd" stroke="#716a64" stroke-width=".45" stroke-linejoin="round" d="M112 118H115V119H118V120H121V119H120V117H121V112H123V113H124V114H125V115H126V116H127V117H129V118H130V120H131V121H132V123H133V126H135V118H136V115H135V110H136V109H138V108H139V107H140V106H141V104H143V105H145V104H146V102H147V101H148V100H149V99H150V97H155V99H154V101H155V105H156V107H155V109H154V110H153V104H152V102H153V101H151V102H150V103H149V105H148V107H145V110H144V111H143V112H142V110H141V113H142V119H144V118H145V117H146V116H148V117H149V118H148V120H147V121H150V120H153V121H155V122H156V124H154V125H148V126H149V127H152V128H153V130H152V131H149V132H142V133H125V132H118V131H114V127H115V126H116V125H118V124H116V123H115V122H114V121H113V120H112Z"/><path class="paint-region" data-region-id="8" data-number="1" data-color="#0e2e39" fill="#0e2e39" fill-rule="evenodd" stroke="#716a64" stroke-width=".45" stroke-linejoin="round" d="M268 111H269V110H270V108H271V101H272V100H277V101H279V104H278V106H277V108H276V109H275V114H276V118H278V119H279V121H278V122H281V121H282V122H288V123H290V124H291V126H290V127H286V128H283V131H282V132H281V138H282V141H275V142H273V139H272V137H271V134H273V135H276V129H277V125H276V121H275V120H274V118H273V117H272V116H271V115H270V114H268Z"/><path class="paint-region" data-region-id="9" data-number="1" data-color="#0e2e39" fill="#0e2e39" fill-rule="evenodd" stroke="#716a64" stroke-width=".45" stroke-linejoin="round" d="M225 113H226V112H228V110H229V108H230V107H231V106H232V105H234V104H237V105H238V106H239V105H241V104H245V103H248V102H250V101H251V102H253V105H252V106H253V108H251V107H239V109H238V110H237V111H236V112H235V114H234V115H233V116H235V117H238V118H236V119H235V120H234V121H232V120H231V119H230V120H228V119H227V117H226V115H225Z"/><path class="paint-region" data-region-id="10" data-number="1" data-color="#0e2e39" fill="#0e2e39" fill-rule="evenodd" stroke="#716a64" stroke-width=".45" stroke-linejoin="round" d="M150 117H151V115H152V114H153V112H154V111H156V112H158V111H160V110H162V111H163V112H162V113H161V114H160V115H158V116H156V117H154V118H152V119H150Z"/><path class="paint-region" data-region-id="11" data-number="1" data-color="#0e2e39" fill="#0e2e39" fill-rule="evenodd" stroke="#716a64" stroke-width=".45" stroke-linejoin="round" d="M246 115H248V114H250V113H252V112H255V113H256V114H257V117H256V119H255V122H254V123H252V120H251V119H250V118H249V117H246Z"/><path class="paint-region" data-region-id="12" data-number="1" data-color="#0e2e39" fill="#0e2e39" fill-rule="evenodd" stroke="#716a64" stroke-width=".45" stroke-linejoin="round" d="M40 124H43V123H45V122H47V125H46V126H44V127H45V129H44V130H42V129H41V127H40Z"/><path class="paint-region" data-region-id="13" data-number="1" data-color="#0e2e39" fill="#0e2e39" fill-rule="evenodd" stroke="#716a64" stroke-width=".45" stroke-linejoin="round" d="M254 124H257V127H258V128H259V129H260V130H261V131H264V133H262V134H260V136H259V132H258V130H257V129H256V128H255V127H254Z"/><path class="paint-region" data-region-id="14" data-number="1" data-color="#0e2e39" fill="#0e2e39" fill-rule="evenodd" stroke="#716a64" stroke-width=".45" stroke-linejoin="round" d="M81 146H82V145H83V142H84V137H86V138H88V139H90V143H91V145H92V146H93V147H94V148H90V149H85V150H81Z"/><path class="paint-region" data-region-id="15" data-number="1" data-color="#0e2e39" fill="#0e2e39" fill-rule="evenodd" stroke="#716a64" stroke-width=".45" stroke-linejoin="round" d="M286 146H289V147H290V148H292V149H293V166H294V176H293V177H292V178H289V179H287V176H288V173H289V171H290V168H291V159H290V158H291V157H290V155H289V153H288V151H287V149H286Z"/><path class="paint-region" data-region-id="16" data-number="1" data-color="#0e2e39" fill="#0e2e39" fill-rule="evenodd" stroke="#716a64" stroke-width=".45" stroke-linejoin="round" d="M97 176H98V169H99V168H111V170H112V174H111V175H110V176H109V177H97Z"/><path class="paint-region" data-region-id="17" data-number="1" data-color="#0e2e39" fill="#0e2e39" fill-rule="evenodd" stroke="#716a64" stroke-width=".45" stroke-linejoin="round" d="M152 169H153V168H166V169H169V170H170V175H167V174H164V173H152Z"/><path class="paint-region" data-region-id="18" data-number="1" data-color="#0e2e39" fill="#0e2e39" fill-rule="evenodd" stroke="#716a64" stroke-width=".45" stroke-linejoin="round" d="M212 173H213V169H230V170H231V173H232V176H233V178H232V179H231V178H230V179H229V178H212Z"/><path class="paint-region" data-region-id="19" data-number="1" data-color="#0e2e39" fill="#0e2e39" fill-rule="evenodd" stroke="#716a64" stroke-width=".45" stroke-linejoin="round" d="M0 198H1V197H2V196H4V195H6V194H7V193H9V194H10V198H9V200H8V204H7V210H6V211H5V212H4V213H2V214H0Z"/><path class="paint-region" data-region-id="20" data-number="2" data-color="#5a747f" fill="#5a747f" fill-rule="evenodd" stroke="#716a64" stroke-width=".45" stroke-linejoin="round" d="M35 3H36V0H43V90H42V91H41V92H40V94H39V95H38V97H36V48H35Z"/><path class="paint-region" data-region-id="21" data-number="2" data-color="#5a747f" fill="#5a747f" fill-rule="evenodd" stroke="#716a64" stroke-width=".45" stroke-linejoin="round" d="M52 0H59V3H58V7H59V85H52V68H53V31H52V22H53V17H52Z"/><path class="paint-region" data-region-id="22" data-number="2" data-color="#5a747f" fill="#5a747f" fill-rule="evenodd" stroke="#716a64" stroke-width=".45" stroke-linejoin="round" d="M274 61H275V0H280V6H281V28H280V33H281V72H275V63H274Z"/><path class="paint-region" data-region-id="23" data-number="2" data-color="#5a747f" fill="#5a747f" fill-rule="evenodd" stroke="#716a64" stroke-width=".45" stroke-linejoin="round" d="M237 18H240V17H239V15H242V16H244V19H245V28H244V29H243V28H242V27H241V25H240V22H239V20H238V19H237Z"/><path class="paint-region" data-region-id="24" data-number="2" data-color="#5a747f" fill="#5a747f" fill-rule="evenodd" stroke="#716a64" stroke-width=".45" stroke-linejoin="round" d="M260 18H263V17H265V16H266V15H269V17H270V25H269V26H268V24H267V22H265V21H266V20H265V19H264V20H260Z"/><path class="paint-region" data-region-id="25" data-number="2" data-color="#5a747f" fill="#5a747f" fill-rule="evenodd" stroke="#716a64" stroke-width=".45" stroke-linejoin="round" d="M249 28H254V27H258V28H256V29H259V30H261V31H264V32H263V33H262V35H261V34H259V35H258V34H254V33H252V32H251V31H250V30H249Z"/><path class="paint-region" data-region-id="26" data-number="2" data-color="#5a747f" fill="#5a747f" fill-rule="evenodd" stroke="#716a64" stroke-width=".45" stroke-linejoin="round" d="M240 50H241V49H243V48H247V47H253V48H252V51H251V50H250V51H246V52H241V51H240Z"/><path class="paint-region" data-region-id="27" data-number="2" data-color="#5a747f" fill="#5a747f" fill-rule="evenodd" stroke="#716a64" stroke-width=".45" stroke-linejoin="round" d="M155 69H156V67H157V66H158V64H160V63H161V62H163V63H168V62H169V63H170V65H169V71H170V70H171V64H172V62H174V61H181V60H183V59H187V58H190V57H194V56H203V57H208V58H220V59H229V58H231V57H235V56H237V57H245V61H244V60H243V61H242V60H236V61H233V62H231V63H229V64H227V65H224V66H222V67H220V68H219V69H221V71H176V70H175V71H174V72H172V73H171V74H169V73H165V72H163V71H159V72H155Z"/><path class="paint-region" data-region-id="28" data-number="2" data-color="#5a747f" fill="#5a747f" fill-rule="evenodd" stroke="#716a64" stroke-width=".45" stroke-linejoin="round" d="M139 68H140V66H141V65H142V64H143V63H144V62H143V61H145V62H146V63H147V65H148V67H149V70H148V69H147V71H146V72H145V73H144V71H143V72H141V70H139Z"/><path class="paint-region" data-region-id="29" data-number="2" data-color="#5a747f" fill="#5a747f" fill-rule="evenodd" stroke="#716a64" stroke-width=".45" stroke-linejoin="round" d="M122 68H123V66H124V65H125V64H127V63H133V62H134V64H135V69H133V72H132V71H131V70H130V75H127V73H126V69H125V71H124V73H123V74H122Z"/><path class="paint-region" data-region-id="30" data-number="2" data-color="#5a747f" fill="#5a747f" fill-rule="evenodd" stroke="#716a64" stroke-width=".45" stroke-linejoin="round" d="M92 64H93V63H96V64H97V65H98V66H99V68H100V69H101V70H100V72H99V73H98V72H97V71H93V67H92V66H93V65H92Z"/><path class="paint-region" data-region-id="31" data-number="2" data-color="#5a747f" fill="#5a747f" fill-rule="evenodd" stroke="#716a64" stroke-width=".45" stroke-linejoin="round" d="M107 66H109V65H111V66H110V67H112V68H113V69H114V71H116V72H118V75H119V76H116V74H114V73H113V71H107Z"/><path class="paint-region" data-region-id="32" data-number="2" data-color="#5a747f" fill="#5a747f" fill-rule="evenodd" stroke="#716a64" stroke-width=".45" stroke-linejoin="round" d="M181 97H183V95H182V93H183V91H184V92H185V93H186V96H188V98H187V99H186V100H185V106H184V105H182V103H181V101H182V98H181Z"/><path class="paint-region" data-region-id="33" data-number="2" data-color="#5a747f" fill="#5a747f" fill-rule="evenodd" stroke="#716a64" stroke-width=".45" stroke-linejoin="round" d="M190 100H192V98H191V97H192V95H194V96H195V97H196V98H195V99H196V100H197V103H196V104H195V106H196V109H195V110H194V112H193V110H191V106H193V105H192V104H191V103H190Z"/><path class="paint-region" data-region-id="34" data-number="2" data-color="#5a747f" fill="#5a747f" fill-rule="evenodd" stroke="#716a64" stroke-width=".45" stroke-linejoin="round" d="M202 108H203V103H204V100H206V98H207V99H208V100H209V103H208V104H209V108H207V109H208V113H206V114H205V117H204V116H203V112H202Z"/><path class="paint-region" data-region-id="35" data-number="2" data-color="#5a747f" fill="#5a747f" fill-rule="evenodd" stroke="#716a64" stroke-width=".45" stroke-linejoin="round" d="M161 113H163V114H165V116H166V117H167V119H168V118H169V117H168V116H170V114H171V113H173V112H172V110H171V109H169V106H171V105H170V104H169V102H170V101H171V100H172V101H173V102H174V105H176V108H175V110H176V112H177V119H178V118H179V115H181V119H182V123H183V124H181V125H180V124H175V122H174V121H173V122H171V126H169V129H168V130H167V129H166V128H164V127H163V124H165V122H162V121H161V119H162V118H161Z"/><path class="paint-region" data-region-id="36" data-number="2" data-color="#5a747f" fill="#5a747f" fill-rule="evenodd" stroke="#716a64" stroke-width=".45" stroke-linejoin="round" d="M180 107H181V106H183V107H185V106H187V105H188V104H189V106H190V111H189V112H191V111H192V118H193V126H195V124H194V122H195V119H196V118H195V117H197V118H198V119H199V122H201V123H200V124H199V125H198V127H199V128H200V129H199V131H196V129H195V130H194V129H193V128H194V127H188V126H187V123H189V122H187V120H185V119H186V114H183V113H182V110H181V108H180Z"/><path class="paint-region" data-region-id="37" data-number="2" data-color="#5a747f" fill="#5a747f" fill-rule="evenodd" stroke="#716a64" stroke-width=".45" stroke-linejoin="round" d="M212 117H213V115H214V114H213V113H214V112H215V111H214V110H215V109H216V107H217V106H218V105H219V106H220V111H221V112H220V114H222V115H220V118H218V119H219V122H218V123H217V122H213V118H212Z"/><path class="paint-region" data-region-id="38" data-number="2" data-color="#5a747f" fill="#5a747f" fill-rule="evenodd" stroke="#716a64" stroke-width=".45" stroke-linejoin="round" d="M0 118H7V117H20V118H21V120H20V121H14V122H10V123H5V124H0Z"/><path class="paint-region" data-region-id="39" data-number="2" data-color="#5a747f" fill="#5a747f" fill-rule="evenodd" stroke="#716a64" stroke-width=".45" stroke-linejoin="round" d="M213 135H214V134H215V132H214V130H216V129H217V128H218V131H219V132H218V135H217V137H219V138H218V139H215V138H214V137H213Z"/><path class="paint-region" data-region-id="40" data-number="2" data-color="#5a747f" fill="#5a747f" fill-rule="evenodd" stroke="#716a64" stroke-width=".45" stroke-linejoin="round" d="M219 140H220V139H222V138H224V137H223V133H224V132H225V130H227V133H230V135H229V136H227V139H225V140H223V141H222V142H219Z"/><path class="paint-region" data-region-id="41" data-number="2" data-color="#5a747f" fill="#5a747f" fill-rule="evenodd" stroke="#716a64" stroke-width=".45" stroke-linejoin="round" d="M35 139H36V138H38V137H39V136H42V137H43V140H44V143H40V144H39V152H40V153H41V154H40V155H35Z"/><path class="paint-region" data-region-id="42" data-number="2" data-color="#5a747f" fill="#5a747f" fill-rule="evenodd" stroke="#716a64" stroke-width=".45" stroke-linejoin="round" d="M99 163H100V162H109V163H110V166H111V168H99Z"/><path class="paint-region" data-region-id="43" data-number="2" data-color="#5a747f" fill="#5a747f" fill-rule="evenodd" stroke="#716a64" stroke-width=".45" stroke-linejoin="round" d="M154 164H155V163H168V164H169V169H166V168H154Z"/><path class="paint-region" data-region-id="44" data-number="2" data-color="#5a747f" fill="#5a747f" fill-rule="evenodd" stroke="#716a64" stroke-width=".45" stroke-linejoin="round" d="M213 166H214V164H229V168H230V169H213V168H214V167H213Z"/><path class="paint-region" data-region-id="45" data-number="2" data-color="#5a747f" fill="#5a747f" fill-rule="evenodd" stroke="#716a64" stroke-width=".45" stroke-linejoin="round" d="M269 224H270V223H271V222H274V221H275V220H277V219H279V218H282V217H287V216H290V215H292V214H295V213H298V212H299V205H298V204H297V203H296V202H295V201H294V200H293V199H295V200H296V201H297V202H299V203H300V204H301V206H302V211H305V209H306V206H305V204H304V203H303V202H301V201H300V200H299V199H297V198H296V197H295V196H298V197H299V198H300V199H302V200H304V201H305V202H306V203H307V204H308V205H309V210H311V209H312V207H313V205H312V203H311V202H310V201H309V200H307V199H306V198H304V197H302V196H300V195H299V194H297V193H296V192H294V191H291V190H289V189H287V188H285V187H282V186H280V185H279V184H276V183H275V182H278V181H282V182H283V183H285V184H287V185H289V186H291V187H294V188H296V189H298V190H300V191H301V192H303V193H305V194H307V195H308V196H310V197H312V198H313V199H315V200H316V202H317V203H318V206H319V207H320V213H319V214H318V215H316V216H312V217H307V218H303V219H293V221H292V222H291V223H289V224H285V225H284V226H282V227H280V228H278V229H277V230H275V231H273V232H272V228H271V226H270V225H269Z"/><path class="paint-region" data-region-id="46" data-number="2" data-color="#5a747f" fill="#5a747f" fill-rule="evenodd" stroke="#716a64" stroke-width=".45" stroke-linejoin="round" d="M210 205H214V206H219V207H226V208H230V209H234V210H236V211H237V212H235V211H231V210H227V211H230V212H233V213H236V214H237V215H239V216H241V217H242V218H244V216H245V217H246V218H247V219H248V220H249V226H246V225H245V224H244V223H243V222H242V221H241V220H239V219H238V218H237V217H236V216H234V215H233V214H230V213H227V212H224V211H221V210H219V209H217V208H214V207H211V206H210Z"/><path class="paint-region" data-region-id="47" data-number="2" data-color="#5a747f" fill="#5a747f" fill-rule="evenodd" stroke="#716a64" stroke-width=".45" stroke-linejoin="round" d="M239 222H240V223H241V224H242V225H243V226H244V227H246V228H247V229H251V228H252V221H251V219H250V217H252V218H253V219H254V221H255V228H256V229H257V230H258V231H257V232H256V237H255V238H254V237H253V236H252V235H251V234H250V233H249V232H248V231H246V230H245V229H244V228H243V227H242V226H241V225H240V224H239Z"/><path class="paint-region" data-region-id="48" data-number="3" data-color="#e7c89d" fill="#e7c89d" fill-rule="evenodd" stroke="#716a64" stroke-width=".45" stroke-linejoin="round" d="M58 3H59V0H90V1H91V2H92V38H93V50H92V61H93V64H92V65H93V66H92V67H93V75H92V78H93V85H92V93H89V94H87V95H85V96H84V95H83V94H82V93H81V92H79V89H81V88H82V87H85V84H83V83H80V82H72V81H70V82H66V83H65V88H63V87H61V86H60V85H59V7H58Z"/><path class="paint-region" data-region-id="49" data-number="3" data-color="#e7c89d" fill="#e7c89d" fill-rule="evenodd" stroke="#716a64" stroke-width=".45" stroke-linejoin="round" d="M197 93H198V91H199V88H203V80H205V79H209V78H214V77H216V76H218V75H221V74H222V69H244V68H245V57H249V60H250V59H251V58H252V57H253V56H255V54H256V53H257V52H270V46H268V45H270V43H269V35H268V31H269V28H270V17H269V12H268V9H269V6H268V3H267V0H275V61H270V62H268V63H267V64H265V66H264V67H263V68H262V69H260V68H259V67H256V66H252V65H251V66H247V68H248V69H249V71H250V73H244V74H243V75H241V76H240V77H239V78H240V79H241V80H242V81H243V82H244V83H246V84H248V85H251V86H250V87H247V88H246V89H238V87H239V85H238V81H237V78H236V77H235V75H234V74H233V73H232V72H231V73H230V74H229V76H228V77H227V81H226V87H216V88H214V89H212V90H211V91H210V92H209V94H208V95H203V94H199V95H198V94H197Z"/><path class="paint-region" data-region-id="50" data-number="3" data-color="#e7c89d" fill="#e7c89d" fill-rule="evenodd" stroke="#716a64" stroke-width=".45" stroke-linejoin="round" d="M282 181H285V180H286V179H289V178H292V177H293V176H294V151H296V150H297V148H298V143H299V138H301V137H302V133H303V132H302V128H301V126H300V125H299V122H298V121H297V120H295V119H294V117H297V118H298V119H301V120H305V121H309V111H308V109H307V108H306V106H305V105H303V104H302V103H303V102H304V101H305V100H306V98H307V96H308V94H309V89H310V87H300V88H297V89H296V90H295V91H294V92H293V91H292V62H291V46H292V29H291V11H290V8H291V0H320V207H319V206H318V203H317V202H316V200H315V199H313V198H312V197H310V196H308V195H307V194H305V193H303V192H301V191H300V190H298V189H296V188H294V187H291V186H289V185H287V184H285V183H283V182H282Z"/><path class="paint-region" data-region-id="51" data-number="3" data-color="#e7c89d" fill="#e7c89d" fill-rule="evenodd" stroke="#716a64" stroke-width=".45" stroke-linejoin="round" d="M267 85H268V84H273V83H276V84H277V85H276V86H275V89H273V88H267Z"/><path class="paint-region" data-region-id="52" data-number="3" data-color="#e7c89d" fill="#e7c89d" fill-rule="evenodd" stroke="#716a64" stroke-width=".45" stroke-linejoin="round" d="M134 91H135V90H137V99H136V100H135V106H136V108H137V109H136V110H135V111H134Z"/><path class="paint-region" data-region-id="53" data-number="3" data-color="#e7c89d" fill="#e7c89d" fill-rule="evenodd" stroke="#716a64" stroke-width=".45" stroke-linejoin="round" d="M69 101H70V100H72V98H73V99H75V100H76V101H79V102H81V104H76V105H75V106H74V107H73V108H72V107H71V106H69Z"/><path class="paint-region" data-region-id="54" data-number="3" data-color="#e7c89d" fill="#e7c89d" fill-rule="evenodd" stroke="#716a64" stroke-width=".45" stroke-linejoin="round" d="M215 162H216V160H217V153H218V152H219V150H223V148H222V146H223V145H224V144H225V143H226V142H227V141H230V140H232V141H233V144H234V148H233V150H232V152H231V154H230V158H229V164H215Z"/><path class="paint-region" data-region-id="55" data-number="3" data-color="#e7c89d" fill="#e7c89d" fill-rule="evenodd" stroke="#716a64" stroke-width=".45" stroke-linejoin="round" d="M155 156H156V148H157V147H159V148H160V150H161V151H162V152H163V153H161V155H163V154H165V155H166V156H165V157H166V161H167V163H155Z"/><path class="paint-region" data-region-id="56" data-number="3" data-color="#e7c89d" fill="#e7c89d" fill-rule="evenodd" stroke="#716a64" stroke-width=".45" stroke-linejoin="round" d="M100 153H101V152H103V153H104V154H105V155H109V162H100V160H101V159H100Z"/><path class="paint-region" data-region-id="57" data-number="3" data-color="#e7c89d" fill="#e7c89d" fill-rule="evenodd" stroke="#716a64" stroke-width=".45" stroke-linejoin="round" d="M35 156H36V155H40V156H42V158H43V159H42V160H43V161H42V163H43V171H44V177H35V171H36V170H37V169H38V168H39V166H37V165H35Z"/><path class="paint-region" data-region-id="58" data-number="3" data-color="#e7c89d" fill="#e7c89d" fill-rule="evenodd" stroke="#716a64" stroke-width=".45" stroke-linejoin="round" d="M210 186H211V181H212V178H228V181H229V182H230V183H229V184H226V185H221V186H220V185H219V186H217V187H215V188H210Z"/><path class="paint-region" data-region-id="59" data-number="3" data-color="#e7c89d" fill="#e7c89d" fill-rule="evenodd" stroke="#716a64" stroke-width=".45" stroke-linejoin="round" d="M56 219H57V218H58V217H61V215H62V213H65V212H69V211H78V210H82V209H85V208H89V207H93V206H95V205H96V204H97V201H98V200H99V198H102V197H103V198H111V199H122V198H124V197H125V196H127V195H139V194H142V196H140V197H139V196H134V197H130V198H128V199H127V200H123V201H121V203H124V204H130V206H132V207H137V208H147V209H152V208H163V206H169V205H171V206H172V205H177V204H179V203H180V201H189V200H190V199H208V197H209V196H210V195H212V194H214V193H216V192H218V191H223V190H226V189H228V188H232V187H239V186H242V185H246V184H256V183H271V182H273V183H276V184H279V185H280V186H282V187H285V188H287V189H289V190H291V191H294V192H296V193H297V194H299V195H300V196H302V197H304V198H306V199H307V200H309V201H310V202H311V203H312V205H313V207H312V209H311V210H309V205H308V204H307V203H306V202H305V201H304V200H302V199H300V198H299V197H298V196H295V197H296V198H297V199H299V200H300V201H301V202H303V203H304V204H305V206H306V209H305V211H302V206H301V204H300V203H299V202H297V201H296V200H295V199H293V200H294V201H295V202H296V203H297V204H298V205H299V212H298V213H295V214H292V215H290V216H287V217H282V218H279V219H277V220H275V221H274V222H271V223H270V224H269V225H270V226H271V228H272V230H271V232H270V233H268V234H267V235H265V236H263V237H262V238H260V239H259V240H253V239H252V238H251V237H250V236H249V235H248V234H247V233H246V232H245V231H244V230H243V229H242V228H241V227H240V226H239V225H238V224H236V223H235V222H233V221H232V220H230V219H227V218H224V217H222V218H221V219H222V220H223V221H224V222H222V221H221V222H220V221H204V220H190V219H178V220H176V221H175V224H174V226H173V230H174V232H175V235H176V236H178V237H180V238H189V239H191V240H175V239H174V238H173V237H172V236H171V234H170V233H164V232H165V231H166V230H167V228H168V223H162V222H159V221H150V220H141V219H130V220H120V219H114V220H104V221H96V222H95V221H93V220H83V221H77V222H76V226H75V227H74V228H73V229H72V234H73V236H72V240H70V237H71V232H70V231H69V229H70V227H71V226H70V221H64V220H56ZM192 206V208H193V209H194V211H195V212H198V213H202V214H204V215H207V216H210V217H213V218H216V219H220V217H218V216H217V215H215V214H211V213H208V212H206V211H205V210H204V209H203V204H204V202H203V203H199V204H195V205H193V206ZM210 205V206H211V207H214V208H217V209H219V210H221V211H224V212H227V213H230V214H233V215H234V216H236V217H237V218H238V219H239V220H241V221H242V222H243V223H244V224H245V225H246V226H249V220H248V219H247V218H246V217H245V216H244V218H242V217H241V216H239V215H237V214H236V213H233V212H230V211H227V210H231V211H235V212H237V211H236V210H234V209H230V208H226V207H219V206H214V205ZM215 201V203H219V204H224V205H228V206H231V207H235V208H237V209H239V210H241V211H243V212H245V213H246V214H247V215H248V216H249V217H250V219H251V221H252V228H251V229H247V228H246V227H244V226H243V225H242V224H241V223H240V222H239V224H240V225H241V226H242V227H243V228H244V229H245V230H246V231H248V232H249V233H250V234H251V235H252V236H253V237H254V238H255V237H256V232H257V231H258V230H257V229H256V227H257V222H256V219H255V217H254V216H253V215H252V214H251V213H250V212H249V211H247V210H246V209H243V208H239V207H236V206H234V205H232V204H230V203H227V202H223V201H220V200H218V201H217V200H216V201Z"/><path class="paint-region" data-region-id="60" data-number="3" data-color="#e7c89d" fill="#e7c89d" fill-rule="evenodd" stroke="#716a64" stroke-width=".45" stroke-linejoin="round" d="M305 221H308V220H311V219H314V218H316V217H318V216H320V223H315V224H309V223H305Z"/><path class="paint-region" data-region-id="61" data-number="4" data-color="#d98d33" fill="#d98d33" fill-rule="evenodd" stroke="#716a64" stroke-width=".45" stroke-linejoin="round" d="M256 50H257V49H260V48H261V47H265V46H270V52H257V53H256Z"/><path class="paint-region" data-region-id="62" data-number="4" data-color="#d98d33" fill="#d98d33" fill-rule="evenodd" stroke="#716a64" stroke-width=".45" stroke-linejoin="round" d="M219 68H220V67H222V66H224V65H227V64H229V63H231V62H233V61H236V60H242V61H243V60H244V61H245V68H244V69H222V70H221V69H219Z"/><path class="paint-region" data-region-id="63" data-number="4" data-color="#d98d33" fill="#d98d33" fill-rule="evenodd" stroke="#716a64" stroke-width=".45" stroke-linejoin="round" d="M126 133H142V132H149V131H152V130H153V128H152V127H149V126H148V125H154V126H156V127H157V128H158V130H159V135H158V136H155V137H154V136H153V137H152V138H151V139H142V140H138V138H139V137H140V134H126Z"/><path class="paint-region" data-region-id="64" data-number="4" data-color="#d98d33" fill="#d98d33" fill-rule="evenodd" stroke="#716a64" stroke-width=".45" stroke-linejoin="round" d="M133 151H134V150H135V149H136V147H137V146H138V144H139V143H141V142H144V141H150V140H152V139H154V138H155V139H156V140H158V144H157V145H156V146H155V147H157V148H156V156H155V164H154V168H153V169H152V173H164V174H167V175H170V176H172V177H173V178H175V179H176V180H177V182H178V184H179V186H180V191H181V192H182V194H183V196H182V197H181V198H178V199H177V200H176V201H175V202H174V203H172V204H170V205H169V206H157V205H153V204H151V203H149V202H148V201H146V200H145V199H144V197H143V196H142V193H141V192H140V191H138V190H137V186H138V185H139V184H140V183H141V181H142V179H143V178H144V177H146V176H147V174H148V163H147V162H143V163H138V162H137V161H136V160H135V156H134V155H133Z"/><path class="paint-region" data-region-id="65" data-number="4" data-color="#d98d33" fill="#d98d33" fill-rule="evenodd" stroke="#716a64" stroke-width=".45" stroke-linejoin="round" d="M273 145H275V144H276V143H280V142H281V143H282V145H281V148H280V149H273Z"/><path class="paint-region" data-region-id="66" data-number="4" data-color="#d98d33" fill="#d98d33" fill-rule="evenodd" stroke="#716a64" stroke-width=".45" stroke-linejoin="round" d="M256 163H258V162H259V161H260V160H263V159H265V158H264V156H265V155H266V154H268V153H271V152H273V151H277V150H281V151H282V152H284V153H285V150H287V151H288V153H289V155H290V157H291V158H290V159H291V168H290V171H289V173H288V176H287V179H286V180H285V181H278V182H275V183H273V181H266V180H264V179H263V178H261V177H259V176H258V175H257V173H258V172H259V170H261V168H259V166H258V165H256Z"/><path class="paint-region" data-region-id="67" data-number="4" data-color="#d98d33" fill="#d98d33" fill-rule="evenodd" stroke="#716a64" stroke-width=".45" stroke-linejoin="round" d="M77 154H80V153H81V152H82V151H91V156H88V157H77Z"/><path class="paint-region" data-region-id="68" data-number="4" data-color="#d98d33" fill="#d98d33" fill-rule="evenodd" stroke="#716a64" stroke-width=".45" stroke-linejoin="round" d="M194 177H195V175H196V173H197V171H198V169H199V168H200V167H203V166H208V165H211V164H212V163H213V162H211V163H204V164H195V163H196V162H197V161H199V158H197V157H198V156H206V157H210V158H211V155H213V156H215V152H217V160H216V162H215V164H214V166H213V167H214V168H213V173H212V181H211V186H210V190H209V193H208V195H206V196H202V197H198V196H197V191H196V182H195V179H194Z"/><path class="paint-region" data-region-id="69" data-number="4" data-color="#d98d33" fill="#d98d33" fill-rule="evenodd" stroke="#716a64" stroke-width=".45" stroke-linejoin="round" d="M7 204H8V200H9V198H10V195H11V194H12V192H14V191H15V190H16V188H17V187H19V188H21V189H22V190H28V191H29V192H32V191H33V187H34V186H39V185H50V186H54V187H55V188H56V189H58V190H59V191H60V192H61V194H62V196H63V197H84V196H86V195H80V194H78V193H77V192H75V191H74V189H73V181H72V180H71V178H70V175H71V174H70V168H71V165H72V163H74V162H76V161H77V160H81V159H85V158H91V160H92V161H93V162H94V163H96V162H97V160H98V159H99V158H100V159H101V160H100V163H99V169H98V176H97V182H96V185H97V186H99V187H100V188H101V189H102V194H101V196H100V198H99V200H98V201H97V202H96V203H94V204H92V205H83V206H81V205H82V204H83V203H84V202H86V201H89V200H90V199H83V200H65V199H64V200H63V209H62V215H61V217H53V218H47V217H43V216H41V215H39V216H38V219H37V221H36V223H35V224H34V227H33V228H32V229H31V230H28V229H26V228H24V227H20V226H17V225H16V224H14V223H13V222H12V221H11V219H10V218H9V215H8V212H7Z"/><path class="paint-region" data-region-id="70" data-number="4" data-color="#d98d33" fill="#d98d33" fill-rule="evenodd" stroke="#716a64" stroke-width=".45" stroke-linejoin="round" d="M81 227H82V225H83V224H84V225H86V224H88V223H89V222H90V220H93V221H95V222H96V221H104V220H107V221H108V222H109V223H110V227H109V229H108V230H107V231H106V232H105V233H104V234H101V235H98V236H95V237H94V239H93V240H88V239H87V238H86V237H85V236H84V235H85V232H84V231H83V230H82V229H81Z"/><path class="paint-region" data-region-id="71" data-number="4" data-color="#d98d33" fill="#d98d33" fill-rule="evenodd" stroke="#716a64" stroke-width=".45" stroke-linejoin="round" d="M217 230H218V229H219V228H220V226H222V225H232V227H231V228H230V230H229V232H228V233H225V234H224V236H223V240H218V232H217Z"/><path class="paint-region" data-region-id="72" data-number="5" data-color="#9fd1c7" fill="#9fd1c7" fill-rule="evenodd" stroke="#716a64" stroke-width=".45" stroke-linejoin="round" d="M90 0H191V3H192V4H193V5H195V6H197V7H201V8H202V9H201V10H200V11H196V10H195V9H193V8H189V7H183V8H182V9H183V10H184V11H185V12H187V13H189V14H195V15H194V17H189V16H185V15H175V16H173V17H174V18H175V19H177V20H187V21H186V22H184V23H183V24H181V25H180V26H179V28H178V29H177V32H179V31H182V30H184V29H185V28H186V27H187V26H188V24H189V22H190V21H191V25H190V32H191V34H192V33H193V31H194V29H195V25H196V24H195V18H196V16H197V15H198V19H197V24H198V27H199V29H201V27H202V24H203V19H202V16H201V12H202V11H203V10H204V9H205V8H207V9H206V16H205V17H206V21H207V22H208V24H210V21H211V12H210V7H211V5H213V4H216V5H215V7H214V10H213V16H214V18H215V20H217V19H218V17H219V14H220V7H219V2H220V1H221V0H223V2H224V3H225V4H226V5H228V6H232V3H242V2H244V1H245V0H247V4H242V5H239V6H238V8H239V9H242V10H245V11H246V10H248V9H251V11H250V12H251V13H252V14H253V15H254V16H256V17H257V19H256V20H255V22H254V26H253V27H254V28H249V30H250V31H251V32H252V33H254V34H258V35H259V34H261V35H263V36H264V39H265V40H266V42H267V43H270V45H268V46H265V47H261V48H260V49H257V50H256V48H255V47H247V48H243V49H241V50H240V51H241V52H246V51H250V50H251V52H250V55H249V57H237V56H235V57H231V58H229V59H220V58H208V57H203V56H194V57H190V58H187V59H183V60H181V61H174V62H173V61H171V62H170V61H169V62H168V63H163V62H161V63H160V64H159V61H160V60H161V59H162V58H163V57H164V56H162V57H160V58H159V51H160V49H162V47H164V46H165V45H166V43H165V44H163V45H162V46H161V47H159V41H160V40H159V39H158V34H157V32H156V31H155V33H154V34H153V35H154V37H153V40H154V45H153V44H152V43H151V42H150V44H151V46H152V47H153V49H154V51H153V50H152V49H151V48H149V49H150V51H151V53H152V56H151V55H150V54H149V63H148V62H145V61H143V62H141V60H142V59H143V57H142V58H141V59H140V58H139V57H138V54H139V52H140V48H141V47H142V45H143V44H141V45H140V46H139V40H140V38H141V36H142V35H140V36H139V38H138V39H137V35H138V33H139V32H140V30H141V29H139V30H138V32H137V33H136V34H134V31H135V30H136V27H135V24H134V23H133V24H132V25H131V24H130V23H129V22H128V24H129V26H130V28H131V29H132V32H131V33H130V32H129V31H128V30H127V32H128V37H129V38H130V39H131V40H132V42H131V41H129V43H127V42H125V43H126V44H127V45H128V46H129V47H130V48H131V50H132V52H131V51H129V50H127V51H128V52H129V53H130V54H131V55H132V57H133V59H134V62H133V63H127V64H126V62H124V63H123V64H122V62H121V61H122V59H123V57H124V54H122V51H123V49H122V50H121V51H120V52H119V53H118V51H117V46H118V43H119V39H120V37H119V38H116V34H115V31H114V39H113V40H112V44H110V43H108V44H109V45H110V47H111V48H112V50H113V51H111V50H110V49H108V50H109V51H110V52H111V53H112V55H113V56H114V57H115V59H116V60H117V62H116V63H113V62H112V64H113V66H111V65H109V66H104V65H103V53H102V55H101V58H100V59H99V60H98V59H97V58H96V57H94V58H95V60H96V61H97V62H98V65H97V64H96V63H93V61H92V50H93V38H92V2H91V1H90ZM218 26V28H223V27H227V26H228V25H230V24H231V23H233V26H232V28H231V38H233V37H234V35H235V32H236V21H237V20H239V22H240V25H241V27H242V28H243V29H244V28H245V19H244V16H242V15H238V14H237V13H236V12H234V11H232V10H227V9H226V11H227V13H228V14H229V15H231V16H234V17H240V18H237V19H236V20H229V21H225V22H223V23H222V24H220V25H219V26ZM243 41V43H244V44H252V43H254V42H256V41H257V40H259V39H260V37H259V38H249V39H247V40H245V41Z"/><path class="paint-region" data-region-id="73" data-number="5" data-color="#9fd1c7" fill="#9fd1c7" fill-rule="evenodd" stroke="#716a64" stroke-width=".45" stroke-linejoin="round" d="M198 0H204V1H206V2H210V3H211V4H210V5H205V4H204V3H202V2H200V1H198Z"/><path class="paint-region" data-region-id="74" data-number="5" data-color="#9fd1c7" fill="#9fd1c7" fill-rule="evenodd" stroke="#716a64" stroke-width=".45" stroke-linejoin="round" d="M261 8H262V7H263V6H267V5H268V6H269V9H268V10H267V11H266V14H265V15H264V16H263V15H262V11H261Z"/><path class="paint-region" data-region-id="75" data-number="5" data-color="#9fd1c7" fill="#9fd1c7" fill-rule="evenodd" stroke="#716a64" stroke-width=".45" stroke-linejoin="round" d="M256 28H258V27H259V26H261V25H263V24H264V23H265V22H267V24H268V26H269V25H270V27H268V28H267V29H266V30H265V31H261V30H259V29H256Z"/><path class="paint-region" data-region-id="76" data-number="5" data-color="#9fd1c7" fill="#9fd1c7" fill-rule="evenodd" stroke="#716a64" stroke-width=".45" stroke-linejoin="round" d="M160 95H162V94H165V93H166V92H168V91H165V90H166V89H167V88H168V87H169V84H168V83H169V81H168V79H169V78H170V77H171V76H172V74H173V72H174V71H175V70H176V71H221V70H222V74H221V75H218V76H216V77H214V78H209V79H205V80H203V88H199V91H198V93H197V94H198V95H199V94H203V95H208V96H211V97H215V98H221V100H220V104H221V108H222V109H223V111H224V110H226V109H228V108H229V110H228V112H226V113H225V114H220V112H221V111H220V106H219V105H218V106H217V107H216V109H215V110H214V111H215V112H214V113H213V114H214V115H213V117H212V116H211V113H210V116H209V119H206V118H205V114H206V113H208V109H207V108H209V104H208V103H209V100H208V99H207V98H206V100H204V103H203V108H202V112H203V116H199V115H195V112H194V110H195V109H196V106H195V104H196V103H197V100H196V99H195V98H196V97H195V96H194V95H192V97H191V98H192V100H190V103H191V104H192V105H193V106H191V110H192V111H191V112H189V111H190V106H189V104H188V105H187V106H185V100H186V99H187V98H188V96H186V93H185V92H184V91H183V93H182V95H183V97H181V98H182V101H181V103H182V105H184V106H185V107H183V106H181V107H180V108H181V110H182V113H183V114H186V119H185V123H182V119H181V115H179V118H178V119H177V112H176V110H175V108H176V105H174V102H173V101H172V100H171V101H170V102H169V104H170V105H171V106H169V109H171V110H172V112H173V113H171V114H170V116H168V117H169V118H168V119H167V117H166V116H165V114H163V113H162V112H163V111H162V110H160V106H162V104H167V103H163V102H164V101H165V100H166V98H167V97H168V96H171V95H166V96H163V97H160Z"/><path class="paint-region" data-region-id="77" data-number="5" data-color="#9fd1c7" fill="#9fd1c7" fill-rule="evenodd" stroke="#716a64" stroke-width=".45" stroke-linejoin="round" d="M92 75H93V71H97V72H98V73H99V74H100V75H101V77H102V78H103V79H104V81H102V80H101V79H100V81H101V82H102V84H103V85H100V86H101V87H102V89H103V90H104V91H105V93H104V92H101V93H103V95H104V96H105V97H102V96H100V95H98V94H95V93H92V85H93V78H92Z"/><path class="paint-region" data-region-id="78" data-number="5" data-color="#9fd1c7" fill="#9fd1c7" fill-rule="evenodd" stroke="#716a64" stroke-width=".45" stroke-linejoin="round" d="M103 74H105V73H106V71H113V73H114V74H115V75H113V77H114V78H115V80H112V81H111V83H109V80H107V76H106V77H103Z"/><path class="paint-region" data-region-id="79" data-number="5" data-color="#9fd1c7" fill="#9fd1c7" fill-rule="evenodd" stroke="#716a64" stroke-width=".45" stroke-linejoin="round" d="M154 77H155V76H156V75H157V73H158V72H159V71H163V72H164V79H163V78H162V80H163V85H161V82H160V83H156V84H154V81H155V80H157V79H154Z"/><path class="paint-region" data-region-id="80" data-number="5" data-color="#9fd1c7" fill="#9fd1c7" fill-rule="evenodd" stroke="#716a64" stroke-width=".45" stroke-linejoin="round" d="M91 110H92V109H97V108H101V109H103V110H109V111H110V112H111V113H112V114H113V115H109V114H107V113H105V112H102V111H98V112H96V113H94V114H92V111H91Z"/><path class="paint-region" data-region-id="81" data-number="5" data-color="#9fd1c7" fill="#9fd1c7" fill-rule="evenodd" stroke="#716a64" stroke-width=".45" stroke-linejoin="round" d="M153 120H154V119H156V116H158V115H160V114H161V118H162V119H161V121H162V122H165V124H163V127H164V128H166V129H167V130H166V131H163V130H162V128H161V129H160V130H158V128H157V127H156V126H154V124H156V122H155V121H153Z"/><path class="paint-region" data-region-id="82" data-number="6" data-color="#40602d" fill="#40602d" fill-rule="evenodd" stroke="#716a64" stroke-width=".45" stroke-linejoin="round" d="M173 16H175V15H185V16H189V17H194V15H195V14H189V13H187V12H185V11H184V10H183V9H182V8H183V7H189V8H193V9H195V10H196V11H200V10H201V9H202V8H201V7H197V6H195V5H193V4H192V3H191V0H198V1H200V2H202V3H204V4H205V5H210V4H211V3H210V2H206V1H204V0H221V1H220V2H219V7H220V14H219V17H218V19H217V20H215V18H214V16H213V10H214V7H215V5H216V4H213V5H211V7H210V12H211V21H210V24H208V22H207V21H206V17H205V16H206V9H207V8H205V9H204V10H203V11H202V12H201V16H202V19H203V24H202V27H201V29H199V27H198V24H197V19H198V15H197V16H196V18H195V24H196V25H195V29H194V31H193V33H192V34H191V32H190V25H191V21H190V22H189V24H188V26H187V27H186V28H185V29H184V30H182V31H179V32H177V29H178V28H179V26H180V25H181V24H183V23H184V22H186V21H187V20H177V19H175V18H174V17H173Z"/><path class="paint-region" data-region-id="83" data-number="6" data-color="#40602d" fill="#40602d" fill-rule="evenodd" stroke="#716a64" stroke-width=".45" stroke-linejoin="round" d="M223 0H245V1H244V2H242V3H232V6H228V5H226V4H225V3H224V2H223Z"/><path class="paint-region" data-region-id="84" data-number="6" data-color="#40602d" fill="#40602d" fill-rule="evenodd" stroke="#716a64" stroke-width=".45" stroke-linejoin="round" d="M238 6H239V5H242V4H247V0H267V3H268V5H267V6H263V7H262V8H261V11H262V15H263V16H264V15H265V14H266V11H267V10H268V12H269V15H266V16H265V17H263V18H260V20H264V19H265V20H266V21H265V23H264V24H263V25H261V26H259V27H253V26H254V22H255V20H256V19H257V17H256V16H254V15H253V14H252V13H251V12H250V11H251V9H248V10H246V11H245V10H242V9H239V8H238Z"/><path class="paint-region" data-region-id="85" data-number="6" data-color="#40602d" fill="#40602d" fill-rule="evenodd" stroke="#716a64" stroke-width=".45" stroke-linejoin="round" d="M226 9H227V10H232V11H234V12H236V13H237V14H238V15H239V17H234V16H231V15H229V14H228V13H227V11H226Z"/><path class="paint-region" data-region-id="86" data-number="6" data-color="#40602d" fill="#40602d" fill-rule="evenodd" stroke="#716a64" stroke-width=".45" stroke-linejoin="round" d="M218 26H219V25H220V24H222V23H223V22H225V21H229V20H236V19H238V20H237V21H236V32H235V35H234V37H233V38H231V28H232V26H233V23H231V24H230V25H228V26H227V27H223V28H218Z"/><path class="paint-region" data-region-id="87" data-number="6" data-color="#40602d" fill="#40602d" fill-rule="evenodd" stroke="#716a64" stroke-width=".45" stroke-linejoin="round" d="M125 42H127V43H129V41H131V42H132V40H131V39H130V38H129V37H128V32H127V30H128V31H129V32H130V33H131V32H132V29H131V28H130V26H129V24H128V22H129V23H130V24H131V25H132V24H133V23H134V24H135V27H136V30H135V31H134V34H136V33H137V32H138V30H139V29H141V30H140V32H139V33H138V35H137V39H138V38H139V36H140V35H142V36H141V38H140V40H139V46H140V45H141V44H143V45H142V47H141V48H140V52H139V54H138V57H137V58H136V60H135V61H134V59H133V57H132V55H131V54H130V53H129V52H128V51H127V50H129V51H131V52H132V50H131V48H130V47H129V46H128V45H127V44H126V43H125Z"/><path class="paint-region" data-region-id="88" data-number="6" data-color="#40602d" fill="#40602d" fill-rule="evenodd" stroke="#716a64" stroke-width=".45" stroke-linejoin="round" d="M262 33H263V32H264V31H265V30H266V29H267V28H268V27H270V28H269V31H268V35H269V43H267V42H266V40H265V39H264V36H263V35H262Z"/><path class="paint-region" data-region-id="89" data-number="6" data-color="#40602d" fill="#40602d" fill-rule="evenodd" stroke="#716a64" stroke-width=".45" stroke-linejoin="round" d="M108 43H110V44H112V40H113V39H114V31H115V34H116V38H119V37H120V39H119V43H118V46H117V51H118V53H119V52H120V51H121V50H122V49H123V51H122V54H124V57H123V59H122V61H121V62H122V64H123V63H124V62H126V64H125V65H124V66H123V68H122V74H123V73H124V71H125V69H126V73H127V75H130V70H131V71H132V73H133V74H134V76H135V79H136V78H137V76H136V73H135V72H137V70H138V68H139V70H141V72H143V71H144V73H145V72H146V71H147V69H148V70H149V67H148V65H147V63H146V62H148V63H149V54H150V55H151V56H152V53H151V51H150V49H149V48H151V49H152V50H153V51H154V49H153V47H152V46H151V44H150V42H151V43H152V44H153V45H154V40H153V37H154V35H153V34H154V33H155V31H156V32H157V34H158V39H159V40H160V41H159V47H161V46H162V45H163V44H165V43H166V45H165V46H164V47H162V49H160V51H159V58H160V57H162V56H164V57H163V58H162V59H161V60H160V61H159V64H158V66H157V67H156V69H155V72H158V73H157V75H156V76H155V77H154V79H157V80H155V81H154V84H156V83H160V82H161V85H163V80H162V78H163V79H164V72H165V73H166V82H165V86H167V85H169V87H168V88H167V89H166V90H165V91H168V92H166V93H165V94H162V95H160V97H163V96H166V95H171V96H168V97H167V98H166V100H165V101H164V102H163V103H167V104H162V106H160V111H158V112H156V111H154V112H153V114H152V115H151V117H150V119H152V118H154V117H156V119H154V120H150V121H147V120H148V118H149V117H148V116H146V117H145V118H144V119H142V113H141V110H142V112H143V111H144V110H145V107H148V105H149V103H150V102H151V101H153V102H152V104H153V110H154V109H155V107H156V105H155V101H154V99H155V97H150V99H149V100H148V101H147V102H146V104H145V105H143V104H141V106H140V107H139V108H138V109H137V108H136V106H137V104H138V101H141V97H142V96H143V93H141V94H140V96H139V98H138V99H137V90H135V91H134V106H133V107H132V106H131V105H130V104H129V103H127V101H128V100H129V98H130V95H131V92H132V91H131V90H129V89H127V88H126V87H125V88H123V87H122V86H121V85H118V84H117V83H116V82H111V81H112V80H115V78H114V77H113V75H115V74H116V76H119V75H118V72H116V71H114V69H113V68H112V67H110V66H113V64H112V62H113V63H116V62H117V60H116V59H115V57H114V56H113V55H112V53H111V52H110V51H109V50H108V49H110V50H111V51H113V50H112V48H111V47H110V45H109V44H108ZM136 82V83H137V84H136V89H137V88H138V87H139V86H140V84H139V82H140V80H142V77H143V76H141V77H139V78H138V80H137V82Z"/><path class="paint-region" data-region-id="90" data-number="6" data-color="#40602d" fill="#40602d" fill-rule="evenodd" stroke="#716a64" stroke-width=".45" stroke-linejoin="round" d="M243 41H245V40H247V39H249V38H259V37H260V39H259V40H257V41H256V42H254V43H252V44H244V43H243Z"/><path class="paint-region" data-region-id="91" data-number="6" data-color="#40602d" fill="#40602d" fill-rule="evenodd" stroke="#716a64" stroke-width=".45" stroke-linejoin="round" d="M249 55H250V52H251V51H252V48H253V47H255V48H256V54H255V56H253V57H252V58H251V59H250V60H249Z"/><path class="paint-region" data-region-id="92" data-number="6" data-color="#40602d" fill="#40602d" fill-rule="evenodd" stroke="#716a64" stroke-width=".45" stroke-linejoin="round" d="M94 57H96V58H97V59H98V60H99V59H100V58H101V55H102V53H103V65H104V67H103V70H101V69H100V68H99V66H98V62H97V61H96V60H95V58H94Z"/><path class="paint-region" data-region-id="93" data-number="6" data-color="#40602d" fill="#40602d" fill-rule="evenodd" stroke="#716a64" stroke-width=".45" stroke-linejoin="round" d="M137 63H138V62H139V60H140V59H141V58H142V57H143V59H142V60H141V62H144V63H143V64H142V65H141V66H140V68H139V66H137Z"/><path class="paint-region" data-region-id="94" data-number="6" data-color="#40602d" fill="#40602d" fill-rule="evenodd" stroke="#716a64" stroke-width=".45" stroke-linejoin="round" d="M155 146H156V145H157V144H158V135H159V130H160V129H161V128H162V130H163V131H166V130H168V129H169V126H171V122H173V121H174V122H175V124H180V125H181V124H183V123H185V120H187V122H189V123H187V126H188V127H194V128H193V129H194V130H195V129H196V131H199V129H200V128H199V127H198V125H199V124H200V123H201V122H199V119H198V118H197V117H195V118H196V119H195V122H194V124H195V126H193V118H192V110H193V112H195V115H199V116H204V117H205V118H206V119H209V116H210V113H211V116H212V118H213V122H217V123H218V122H219V119H218V118H220V115H222V114H225V115H226V117H227V119H228V120H230V119H231V120H232V121H234V120H235V119H236V118H238V117H235V116H233V115H234V114H235V112H236V111H237V110H238V109H239V107H251V108H253V106H252V105H253V102H254V101H255V98H254V97H246V98H243V99H236V98H235V97H234V96H231V97H230V98H228V96H229V93H236V92H237V91H238V90H240V89H246V88H247V87H250V86H254V85H255V84H257V83H258V82H259V81H260V82H262V81H263V80H264V78H265V77H266V76H267V75H269V74H270V72H271V69H269V70H268V71H266V73H265V72H264V71H263V67H264V66H265V64H267V63H268V62H270V61H274V63H275V72H281V73H283V74H285V75H286V77H287V79H284V80H282V81H281V82H280V84H281V85H282V86H284V87H287V88H289V89H290V90H291V88H292V95H291V97H290V100H289V98H284V99H280V100H281V102H282V103H280V104H279V101H277V100H272V98H271V96H269V95H260V96H258V99H257V105H258V107H259V108H260V110H261V112H260V113H259V114H258V113H257V111H256V110H255V109H253V111H254V112H252V113H250V114H248V115H246V117H249V118H250V119H251V120H252V123H254V122H255V123H256V124H254V125H252V127H247V128H246V129H245V130H244V131H243V138H242V139H239V140H238V139H232V140H230V141H227V142H226V143H225V144H224V145H223V146H222V148H223V150H219V152H218V153H217V152H215V156H213V155H211V158H210V157H206V156H198V157H197V158H195V157H187V158H185V157H183V156H179V155H178V156H177V157H175V156H173V158H172V156H170V158H169V159H168V157H169V155H165V154H163V155H161V153H163V152H162V151H161V150H160V148H159V147H155ZM213 135V137H214V138H215V139H218V138H219V137H217V135H218V132H219V131H218V128H217V129H216V130H214V132H215V134H214V135ZM219 140V142H222V141H223V140H225V139H227V136H229V135H230V133H227V130H225V132H224V133H223V137H224V138H222V139H220V140ZM266 86V93H270V94H271V95H272V96H276V97H277V96H278V95H277V92H276V85H277V84H276V83H273V84H268V85H267V86Z"/><path class="paint-region" data-region-id="95" data-number="6" data-color="#40602d" fill="#40602d" fill-rule="evenodd" stroke="#716a64" stroke-width=".45" stroke-linejoin="round" d="M169 61H170V62H171V61H173V62H172V64H171V70H170V71H169V65H170V63H169Z"/><path class="paint-region" data-region-id="96" data-number="6" data-color="#40602d" fill="#40602d" fill-rule="evenodd" stroke="#716a64" stroke-width=".45" stroke-linejoin="round" d="M247 66H251V65H252V66H256V67H259V68H260V69H261V73H258V74H259V76H260V77H261V78H259V79H258V78H257V77H256V76H254V74H252V73H251V72H250V71H249V69H248V68H247Z"/><path class="paint-region" data-region-id="97" data-number="6" data-color="#40602d" fill="#40602d" fill-rule="evenodd" stroke="#716a64" stroke-width=".45" stroke-linejoin="round" d="M226 81H227V77H228V76H229V74H230V73H231V72H232V73H233V74H234V75H235V77H236V78H237V81H238V86H235V87H233V89H232V88H231V87H230V86H226Z"/><path class="paint-region" data-region-id="98" data-number="6" data-color="#40602d" fill="#40602d" fill-rule="evenodd" stroke="#716a64" stroke-width=".45" stroke-linejoin="round" d="M239 77H240V76H241V75H243V74H247V75H248V76H250V78H255V79H256V82H255V83H253V84H250V83H249V82H243V81H242V80H241V79H240V78H239Z"/><path class="paint-region" data-region-id="99" data-number="6" data-color="#40602d" fill="#40602d" fill-rule="evenodd" stroke="#716a64" stroke-width=".45" stroke-linejoin="round" d="M84 96H85V95H87V94H89V95H88V96H87V100H88V102H89V103H90V104H92V105H100V106H107V107H109V104H108V102H107V101H106V100H105V99H102V98H101V97H105V96H104V95H103V93H101V92H104V93H105V91H104V90H103V89H102V87H101V86H100V85H103V84H102V82H101V81H100V79H101V80H102V81H104V79H103V78H104V77H106V76H107V80H109V83H111V85H112V86H115V87H118V88H120V89H121V90H122V94H119V93H118V92H116V91H113V92H112V93H111V95H113V93H115V100H116V97H117V96H119V97H120V98H121V99H122V102H123V101H124V103H125V104H127V105H128V106H130V108H131V110H132V113H133V114H129V117H127V116H126V115H125V114H124V113H123V112H121V117H120V119H121V120H118V119H115V118H112V117H111V116H110V115H113V114H112V113H111V112H110V111H109V110H103V109H101V108H97V109H90V107H89V106H88V105H87V104H84Z"/><path class="paint-region" data-region-id="100" data-number="6" data-color="#40602d" fill="#40602d" fill-rule="evenodd" stroke="#716a64" stroke-width=".45" stroke-linejoin="round" d="M38 95H39V94H40V92H41V91H42V90H43V89H45V88H46V87H49V86H52V85H60V86H61V87H63V88H64V89H65V90H66V91H65V92H61V93H59V94H58V95H57V96H56V97H55V101H56V104H55V105H56V106H57V104H58V102H59V101H57V99H59V98H61V97H62V95H63V94H65V93H68V94H67V95H66V96H64V97H63V99H62V100H61V102H60V103H59V106H58V107H57V109H56V110H59V109H60V108H61V107H63V106H67V108H65V109H63V110H62V111H61V113H60V116H59V118H61V116H62V115H63V113H65V112H68V113H67V114H66V115H65V117H64V124H62V128H63V130H64V131H65V133H66V134H67V133H68V130H69V126H70V125H68V127H67V128H65V127H66V125H67V124H68V123H69V122H70V120H71V111H72V120H73V122H74V125H75V126H74V127H73V124H72V125H71V130H72V132H73V131H74V130H75V129H76V127H77V126H78V123H79V122H78V119H77V117H76V114H75V113H74V111H73V107H74V106H75V105H77V106H76V107H75V109H76V110H77V112H78V114H79V117H84V118H85V119H87V120H91V121H92V114H94V113H96V112H98V113H99V114H100V115H98V117H100V118H102V119H99V118H97V117H96V118H95V119H96V120H97V122H98V126H99V128H100V130H95V131H94V132H95V134H94V143H96V136H97V135H98V136H99V137H100V139H101V140H102V142H103V145H104V149H105V151H106V155H105V154H104V153H103V152H101V151H98V150H97V149H90V148H94V147H93V146H92V145H91V143H90V139H88V138H86V137H84V136H85V135H84V133H83V132H82V130H80V129H79V130H78V133H77V134H76V135H75V136H74V138H75V139H74V140H75V144H76V148H77V150H79V154H76V153H75V152H74V151H71V150H69V151H68V152H67V153H66V154H65V156H64V157H63V158H62V159H61V160H60V161H59V162H58V163H55V164H54V165H53V166H52V167H50V166H49V164H48V162H47V161H46V158H45V146H49V147H50V148H51V149H52V150H53V149H54V148H56V147H57V145H58V143H59V142H60V141H61V137H62V134H61V130H60V127H58V126H57V125H52V126H53V127H54V128H52V127H51V128H50V126H48V127H46V128H45V127H44V126H46V125H47V122H48V121H49V118H50V115H48V112H50V111H51V110H52V109H53V108H52V107H49V106H51V104H52V99H50V98H48V97H43V96H40V97H38Z"/><path class="paint-region" data-region-id="101" data-number="6" data-color="#40602d" fill="#40602d" fill-rule="evenodd" stroke="#716a64" stroke-width=".45" stroke-linejoin="round" d="M208 94H209V92H210V91H211V90H212V89H214V88H216V87H225V88H226V89H227V91H228V92H229V93H226V94H225V95H223V97H222V98H215V97H211V96H208Z"/><path class="paint-region" data-region-id="102" data-number="6" data-color="#40602d" fill="#40602d" fill-rule="evenodd" stroke="#716a64" stroke-width=".45" stroke-linejoin="round" d="M296 96H297V97H298V96H300V94H301V90H302V89H301V87H310V89H309V94H308V96H307V98H306V100H305V101H304V102H303V103H300V101H298V100H296Z"/><path class="paint-region" data-region-id="103" data-number="6" data-color="#40602d" fill="#40602d" fill-rule="evenodd" stroke="#716a64" stroke-width=".45" stroke-linejoin="round" d="M276 117H280V116H283V115H286V114H288V113H290V110H289V108H291V109H293V107H294V105H299V104H300V105H301V104H303V105H305V106H306V108H307V109H308V111H309V121H305V120H301V119H298V118H297V117H294V119H295V120H297V121H298V122H299V125H300V126H301V128H302V132H303V133H302V137H301V138H300V137H298V135H297V132H296V131H295V130H290V129H288V127H290V126H291V124H290V123H288V122H282V121H281V122H278V121H279V119H278V118H276Z"/><path class="paint-region" data-region-id="104" data-number="6" data-color="#40602d" fill="#40602d" fill-rule="evenodd" stroke="#716a64" stroke-width=".45" stroke-linejoin="round" d="M23 113H24V110H25V111H26V110H27V109H29V108H32V107H38V106H44V108H43V109H42V111H41V113H40V116H39V117H38V118H37V119H36V117H33V116H31V115H30V116H27V117H26V118H24V117H23Z"/><path class="paint-region" data-region-id="105" data-number="6" data-color="#40602d" fill="#40602d" fill-rule="evenodd" stroke="#716a64" stroke-width=".45" stroke-linejoin="round" d="M255 119H257V118H258V117H260V116H261V115H262V114H264V113H266V114H267V113H268V114H270V115H271V116H272V117H273V118H274V120H275V121H276V125H277V129H276V135H273V134H271V137H272V139H273V142H274V143H273V148H270V147H268V146H266V145H264V144H262V143H260V142H258V141H257V137H258V133H259V136H260V134H262V133H264V131H261V130H260V129H259V128H258V127H257V125H262V123H261V122H260V121H256V122H255Z"/><path class="paint-region" data-region-id="106" data-number="6" data-color="#40602d" fill="#40602d" fill-rule="evenodd" stroke="#716a64" stroke-width=".45" stroke-linejoin="round" d="M18 137H19V132H20V134H21V135H23V134H24V133H25V131H26V130H27V129H28V128H30V127H32V126H34V124H32V123H29V124H25V123H27V122H35V123H36V124H40V126H39V125H37V126H35V136H34V138H36V139H35V141H34V142H31V143H29V144H27V145H25V146H24V147H23V149H20V147H19V142H18Z"/><path class="paint-region" data-region-id="107" data-number="6" data-color="#40602d" fill="#40602d" fill-rule="evenodd" stroke="#716a64" stroke-width=".45" stroke-linejoin="round" d="M2 168H3V167H5V166H6V165H7V166H8V168H9V170H10V172H11V173H12V174H13V175H14V176H16V177H17V175H18V172H19V171H20V170H21V169H22V168H23V167H24V166H26V165H33V164H34V165H37V166H39V168H38V169H37V170H36V171H34V172H33V173H32V174H30V175H29V176H26V177H18V179H14V178H12V177H11V176H10V175H9V174H8V172H7V171H5V170H3V169H2Z"/><path class="paint-region" data-region-id="108" data-number="6" data-color="#40602d" fill="#40602d" fill-rule="evenodd" stroke="#716a64" stroke-width=".45" stroke-linejoin="round" d="M23 181H29V180H31V179H33V178H35V177H44V178H45V179H47V180H48V181H49V182H51V184H52V186H50V185H39V186H34V187H33V191H32V192H29V191H28V187H27V184H26V183H25V182H23Z"/><path class="paint-region" data-region-id="109" data-number="6" data-color="#40602d" fill="#40602d" fill-rule="evenodd" stroke="#716a64" stroke-width=".45" stroke-linejoin="round" d="M0 184H1V183H2V181H3V180H5V179H7V178H12V188H11V190H10V191H9V193H7V194H6V195H4V196H2V197H1V198H0Z"/><path class="paint-region" data-region-id="110" data-number="7" data-color="#908347" fill="#908347" fill-rule="evenodd" stroke="#716a64" stroke-width=".45" stroke-linejoin="round" d="M132 72H133V69H135V64H134V61H135V60H136V58H137V57H139V58H140V60H139V62H138V63H137V66H139V68H138V70H137V72H135V73H136V76H137V78H136V79H135V76H134V74H133V73H132Z"/><path class="paint-region" data-region-id="111" data-number="7" data-color="#908347" fill="#908347" fill-rule="evenodd" stroke="#716a64" stroke-width=".45" stroke-linejoin="round" d="M244 73H250V72H251V73H252V74H254V76H256V77H257V78H258V79H259V78H261V77H260V76H259V74H258V73H261V69H262V68H263V71H264V72H265V73H266V71H268V70H269V69H271V72H270V74H269V75H267V76H266V77H265V78H264V80H263V81H262V82H260V81H259V82H258V83H257V84H255V85H254V86H251V85H248V84H246V83H244V82H249V83H250V84H253V83H255V82H256V79H255V78H250V76H248V75H247V74H244Z"/><path class="paint-region" data-region-id="112" data-number="7" data-color="#908347" fill="#908347" fill-rule="evenodd" stroke="#716a64" stroke-width=".45" stroke-linejoin="round" d="M165 82H166V73H169V74H171V73H172V72H173V74H172V76H171V77H170V78H169V79H168V81H169V83H168V84H169V85H167V86H165Z"/><path class="paint-region" data-region-id="113" data-number="7" data-color="#908347" fill="#908347" fill-rule="evenodd" stroke="#716a64" stroke-width=".45" stroke-linejoin="round" d="M55 97H56V96H57V95H58V94H59V93H61V92H65V91H66V90H65V89H64V88H65V83H66V82H70V81H72V82H80V83H83V84H85V87H82V88H81V89H79V92H81V93H82V94H83V95H84V104H87V105H88V106H89V107H90V109H92V110H91V111H92V121H91V120H87V119H85V118H84V117H79V114H78V112H77V110H76V109H75V107H76V106H77V105H76V104H81V102H79V101H76V100H75V99H73V98H72V100H70V101H69V106H71V107H72V108H73V111H74V113H75V114H76V117H77V119H78V122H79V123H78V126H77V127H76V129H75V130H74V131H73V132H72V130H71V125H72V124H73V127H74V126H75V125H74V122H73V120H72V111H71V120H70V122H69V123H68V124H67V125H66V127H65V128H67V127H68V125H70V126H69V130H68V133H67V134H66V133H65V131H64V130H63V128H62V124H64V117H65V115H66V114H67V113H68V112H65V113H63V115H62V116H61V118H59V116H60V113H61V111H62V110H63V109H65V108H67V106H63V107H61V108H60V109H59V110H56V109H57V107H58V106H59V103H60V102H61V100H62V99H63V97H64V96H66V95H67V94H68V93H65V94H63V95H62V97H61V98H59V99H57V101H59V102H58V104H57V106H56V105H55V104H56V101H55Z"/><path class="paint-region" data-region-id="114" data-number="7" data-color="#908347" fill="#908347" fill-rule="evenodd" stroke="#716a64" stroke-width=".45" stroke-linejoin="round" d="M225 87H226V86H230V87H231V88H232V89H233V87H235V86H238V85H239V87H238V89H240V90H238V91H237V92H236V93H229V92H228V91H227V89H226V88H225Z"/><path class="paint-region" data-region-id="115" data-number="7" data-color="#908347" fill="#908347" fill-rule="evenodd" stroke="#716a64" stroke-width=".45" stroke-linejoin="round" d="M266 86H267V88H273V89H275V86H276V92H277V95H278V96H277V97H276V96H272V95H271V94H270V93H266Z"/><path class="paint-region" data-region-id="116" data-number="7" data-color="#908347" fill="#908347" fill-rule="evenodd" stroke="#716a64" stroke-width=".45" stroke-linejoin="round" d="M275 109H276V108H277V106H278V104H280V103H282V102H281V100H280V99H284V98H289V100H290V97H291V95H292V91H293V92H294V91H295V90H296V89H297V88H300V87H301V89H302V90H301V94H300V96H298V97H297V96H296V100H298V101H300V103H302V104H301V105H300V104H299V105H294V107H293V109H291V108H289V110H290V113H288V114H286V115H283V116H280V117H276V114H275Z"/><path class="paint-region" data-region-id="117" data-number="7" data-color="#908347" fill="#908347" fill-rule="evenodd" stroke="#716a64" stroke-width=".45" stroke-linejoin="round" d="M87 96H88V95H89V93H95V94H98V95H100V96H102V97H101V98H102V99H105V100H106V101H107V102H108V104H109V107H107V106H100V105H92V104H90V103H89V102H88V100H87Z"/><path class="paint-region" data-region-id="118" data-number="7" data-color="#908347" fill="#908347" fill-rule="evenodd" stroke="#716a64" stroke-width=".45" stroke-linejoin="round" d="M220 100H221V98H222V97H223V95H225V94H226V93H229V96H228V98H230V97H231V96H234V97H235V98H236V99H243V98H246V97H254V98H255V101H254V102H251V101H250V102H248V103H245V104H241V105H239V106H238V105H237V104H234V105H232V106H231V107H230V108H228V109H226V110H224V111H223V109H222V108H221V104H220Z"/><path class="paint-region" data-region-id="119" data-number="7" data-color="#908347" fill="#908347" fill-rule="evenodd" stroke="#716a64" stroke-width=".45" stroke-linejoin="round" d="M253 109H255V110H256V111H257V113H258V114H259V113H260V112H261V110H260V108H259V107H258V105H257V99H258V96H260V95H269V96H271V98H272V101H271V108H270V110H269V111H268V113H267V114H266V113H264V114H262V115H261V116H260V117H258V118H257V119H256V117H257V114H256V113H255V112H254V111H253Z"/><path class="paint-region" data-region-id="120" data-number="7" data-color="#908347" fill="#908347" fill-rule="evenodd" stroke="#716a64" stroke-width=".45" stroke-linejoin="round" d="M25 109H26V108H27V105H28V104H29V103H30V102H31V101H33V100H34V99H35V98H36V97H40V96H43V97H48V98H50V99H52V104H51V106H49V107H52V108H53V109H52V110H51V111H50V112H48V115H50V118H49V121H48V122H45V123H43V124H36V123H35V122H28V121H30V120H35V119H37V118H38V117H39V116H40V113H41V111H42V109H43V108H44V106H38V107H32V108H29V109H27V110H26V111H25Z"/><path class="paint-region" data-region-id="121" data-number="7" data-color="#908347" fill="#908347" fill-rule="evenodd" stroke="#716a64" stroke-width=".45" stroke-linejoin="round" d="M127 103H129V104H130V105H131V106H132V107H133V106H134V111H135V115H136V118H135V126H133V123H132V121H131V120H130V118H129V114H133V113H132V110H131V108H130V106H128V105H127Z"/><path class="paint-region" data-region-id="122" data-number="7" data-color="#908347" fill="#908347" fill-rule="evenodd" stroke="#716a64" stroke-width=".45" stroke-linejoin="round" d="M94 131H95V130H100V128H99V126H98V122H97V120H96V119H95V118H96V117H97V118H99V119H102V118H100V117H98V115H100V114H99V113H98V111H102V112H105V113H107V114H109V115H110V116H111V117H112V120H113V121H114V122H115V123H116V124H118V125H116V126H115V127H114V133H113V134H112V133H108V132H106V134H107V136H108V138H109V142H110V149H109V153H108V154H109V155H106V151H105V149H104V145H103V142H102V140H101V139H100V137H99V136H98V135H97V136H96V143H94V134H95V132H94Z"/><path class="paint-region" data-region-id="123" data-number="7" data-color="#908347" fill="#908347" fill-rule="evenodd" stroke="#716a64" stroke-width=".45" stroke-linejoin="round" d="M255 122H256V121H260V122H261V123H262V125H257V124H256V123H255Z"/><path class="paint-region" data-region-id="124" data-number="7" data-color="#908347" fill="#908347" fill-rule="evenodd" stroke="#716a64" stroke-width=".45" stroke-linejoin="round" d="M20 131H21V129H22V127H23V125H24V124H29V123H32V124H34V126H32V127H30V128H28V129H27V130H26V131H25V133H24V134H23V135H21V134H20Z"/><path class="paint-region" data-region-id="125" data-number="7" data-color="#908347" fill="#908347" fill-rule="evenodd" stroke="#716a64" stroke-width=".45" stroke-linejoin="round" d="M34 136H35V126H37V125H39V126H40V127H41V129H42V130H44V129H45V128H46V127H48V126H50V128H51V127H52V128H54V127H53V126H52V125H57V126H58V127H60V130H61V134H62V137H61V141H60V142H59V143H58V145H57V147H56V148H54V149H53V150H52V149H51V148H50V147H49V146H45V144H40V143H44V140H43V137H42V136H39V137H38V138H34Z"/><path class="paint-region" data-region-id="126" data-number="7" data-color="#908347" fill="#908347" fill-rule="evenodd" stroke="#716a64" stroke-width=".45" stroke-linejoin="round" d="M242 138H243V131H244V130H245V129H246V128H247V127H252V125H254V127H255V128H256V129H257V130H258V132H259V133H258V137H257V141H254V142H253V143H252V144H250V145H249V146H248V147H247V146H246V144H245V142H244V140H242Z"/><path class="paint-region" data-region-id="127" data-number="7" data-color="#908347" fill="#908347" fill-rule="evenodd" stroke="#716a64" stroke-width=".45" stroke-linejoin="round" d="M281 132H282V131H283V128H286V127H288V129H290V130H295V131H296V132H297V135H298V137H300V138H299V143H298V148H297V150H296V151H294V166H293V149H292V148H290V147H289V146H287V145H286V144H285V143H284V142H283V141H282V138H281Z"/><path class="paint-region" data-region-id="128" data-number="7" data-color="#908347" fill="#908347" fill-rule="evenodd" stroke="#716a64" stroke-width=".45" stroke-linejoin="round" d="M74 136H75V135H76V134H77V133H78V130H79V129H80V130H82V132H83V133H84V135H85V136H84V142H83V145H82V146H81V150H80V151H79V150H77V148H76V144H75V140H74V139H75V138H74Z"/><path class="paint-region" data-region-id="129" data-number="7" data-color="#908347" fill="#908347" fill-rule="evenodd" stroke="#716a64" stroke-width=".45" stroke-linejoin="round" d="M0 160H3V161H7V162H8V161H12V160H14V159H15V157H18V156H33V155H36V156H35V165H34V164H33V165H26V166H24V167H23V168H22V169H21V170H20V171H19V172H18V175H17V177H16V176H14V175H13V174H12V173H11V172H10V170H9V168H8V166H7V165H6V166H5V167H3V168H2V169H3V170H5V171H7V172H8V174H9V175H10V176H11V177H12V178H7V179H5V180H3V181H2V183H1V184H0Z"/><path class="paint-region" data-region-id="130" data-number="7" data-color="#908347" fill="#908347" fill-rule="evenodd" stroke="#716a64" stroke-width=".45" stroke-linejoin="round" d="M9 191H10V190H11V188H12V178H14V179H18V177H26V176H29V175H30V174H32V173H33V172H34V171H35V178H33V179H31V180H29V181H23V182H25V183H26V184H27V187H28V190H22V189H21V188H19V187H17V188H16V190H15V191H14V192H12V194H11V195H10V194H9Z"/><path class="paint-region" data-region-id="131" data-number="7" data-color="#908347" fill="#908347" fill-rule="evenodd" stroke="#716a64" stroke-width=".45" stroke-linejoin="round" d="M96 182H97V177H108V180H109V182H110V183H112V185H113V186H114V187H116V188H118V189H123V190H138V191H140V192H141V193H142V194H139V195H127V196H125V197H124V198H122V199H111V198H103V197H102V198H100V196H101V194H102V189H101V188H100V187H99V186H97V185H96Z"/><path class="paint-region" data-region-id="132" data-number="7" data-color="#908347" fill="#908347" fill-rule="evenodd" stroke="#716a64" stroke-width=".45" stroke-linejoin="round" d="M198 198H203V197H205V196H206V195H208V193H209V190H210V188H215V187H217V186H219V185H220V186H221V185H226V184H229V183H230V182H229V181H228V178H229V179H230V178H231V179H232V178H233V180H234V182H235V183H236V185H237V186H238V187H232V188H228V189H226V190H223V191H218V192H216V193H214V194H212V195H210V196H209V197H208V199H198Z"/><path class="paint-region" data-region-id="133" data-number="7" data-color="#908347" fill="#908347" fill-rule="evenodd" stroke="#716a64" stroke-width=".45" stroke-linejoin="round" d="M121 201H123V200H127V199H128V198H130V197H134V196H139V197H140V196H143V197H144V199H145V200H146V201H148V202H149V203H151V204H153V205H157V206H163V208H152V209H147V208H137V207H132V206H130V204H124V203H121Z"/><path class="paint-region" data-region-id="134" data-number="7" data-color="#908347" fill="#908347" fill-rule="evenodd" stroke="#716a64" stroke-width=".45" stroke-linejoin="round" d="M170 204H172V203H174V202H175V201H176V200H177V199H178V198H181V197H182V198H186V199H190V200H189V201H180V203H179V204H177V205H172V206H171V205H170Z"/><path class="paint-region" data-region-id="135" data-number="7" data-color="#908347" fill="#908347" fill-rule="evenodd" stroke="#716a64" stroke-width=".45" stroke-linejoin="round" d="M215 201H216V200H217V201H218V200H220V201H223V202H227V203H230V204H232V205H234V206H236V207H239V208H243V209H246V210H247V211H249V212H250V213H251V214H252V215H253V216H254V217H255V219H256V222H257V227H256V228H255V221H254V219H253V218H252V217H249V216H248V215H247V214H246V213H245V212H243V211H241V210H239V209H237V208H235V207H231V206H228V205H224V204H219V203H215Z"/><path class="paint-region" data-region-id="136" data-number="7" data-color="#908347" fill="#908347" fill-rule="evenodd" stroke="#716a64" stroke-width=".45" stroke-linejoin="round" d="M62 209H63V208H79V207H86V206H89V205H92V204H94V203H96V202H97V204H96V205H95V206H93V207H89V208H85V209H82V210H78V211H69V212H65V213H62Z"/><path class="paint-region" data-region-id="137" data-number="7" data-color="#908347" fill="#908347" fill-rule="evenodd" stroke="#716a64" stroke-width=".45" stroke-linejoin="round" d="M192 206H193V205H195V204H199V203H203V202H204V204H203V209H204V210H205V211H206V212H208V213H211V214H215V215H217V216H218V217H220V219H216V218H213V217H210V216H207V215H204V214H202V213H198V212H195V211H194V209H193V208H192Z"/><path class="paint-region" data-region-id="138" data-number="7" data-color="#908347" fill="#908347" fill-rule="evenodd" stroke="#716a64" stroke-width=".45" stroke-linejoin="round" d="M0 214H2V213H4V212H5V211H6V210H7V212H8V215H9V218H10V219H5V221H7V223H8V225H9V227H10V228H12V229H13V230H14V231H17V232H18V233H19V234H22V233H26V232H27V231H29V230H31V229H32V228H33V227H34V224H35V223H36V221H45V220H47V221H51V220H54V219H56V220H64V221H70V226H71V227H70V229H69V231H70V232H71V237H70V240H0Z"/><path class="paint-region" data-region-id="139" data-number="7" data-color="#908347" fill="#908347" fill-rule="evenodd" stroke="#716a64" stroke-width=".45" stroke-linejoin="round" d="M259 239H260V238H262V237H263V236H265V235H267V234H268V233H270V232H271V230H272V232H273V231H275V230H277V229H278V228H280V227H282V226H284V225H285V224H289V223H291V222H292V221H293V219H303V218H307V217H312V216H316V215H318V214H319V213H320V216H318V217H316V218H314V219H311V220H308V221H305V223H309V224H315V223H320V240H259Z"/><path class="paint-region" data-region-id="140" data-number="7" data-color="#908347" fill="#908347" fill-rule="evenodd" stroke="#716a64" stroke-width=".45" stroke-linejoin="round" d="M173 226H174V224H175V221H176V220H178V219H190V220H204V221H220V222H221V221H222V222H224V221H223V220H222V219H221V218H222V217H224V218H227V219H230V220H232V221H233V222H235V223H236V224H238V225H239V226H240V227H241V228H242V229H243V230H244V231H245V232H246V233H247V234H248V235H249V236H250V237H251V238H252V239H253V240H223V236H224V234H225V233H228V232H229V230H230V228H231V227H232V225H222V226H220V228H219V229H218V230H217V232H218V240H191V239H189V238H180V237H178V236H176V235H175V232H174V230H173Z"/><path class="paint-region" data-region-id="141" data-number="7" data-color="#908347" fill="#908347" fill-rule="evenodd" stroke="#716a64" stroke-width=".45" stroke-linejoin="round" d="M93 239H94V237H95V236H98V235H101V234H104V233H105V232H106V231H107V230H108V229H109V227H110V223H109V222H108V221H107V220H114V219H120V220H130V219H141V220H150V221H159V222H162V223H168V228H167V230H166V231H165V232H164V233H170V234H171V236H172V237H173V238H174V239H175V240H93Z"/><path class="paint-region" data-region-id="142" data-number="7" data-color="#908347" fill="#908347" fill-rule="evenodd" stroke="#716a64" stroke-width=".45" stroke-linejoin="round" d="M72 229H73V228H74V227H75V226H76V222H77V221H83V220H90V222H89V223H88V224H86V225H84V224H83V225H82V227H81V229H82V230H83V231H84V232H85V235H84V236H85V237H86V238H87V239H88V240H72V236H73V234H72Z"/><path class="paint-region" data-region-id="143" data-number="8" data-color="#8f4a1d" fill="#8f4a1d" fill-rule="evenodd" stroke="#716a64" stroke-width=".45" stroke-linejoin="round" d="M106 132H108V133H112V134H113V133H114V131H118V132H125V133H126V134H140V137H139V138H138V140H142V139H151V138H152V137H153V136H154V137H155V136H158V140H156V139H155V138H154V139H152V140H150V141H144V142H141V143H139V144H138V146H137V147H136V149H135V150H134V151H133V155H134V156H135V160H136V161H137V162H138V163H143V162H147V163H148V174H147V176H146V177H144V178H143V179H142V181H141V183H140V184H139V185H138V186H137V190H123V189H118V188H116V187H114V186H113V185H112V183H110V182H109V180H108V177H109V176H110V175H111V174H112V170H111V166H110V163H109V154H108V153H109V149H110V142H109V138H108V136H107V134H106Z"/><path class="paint-region" data-region-id="144" data-number="8" data-color="#8f4a1d" fill="#8f4a1d" fill-rule="evenodd" stroke="#716a64" stroke-width=".45" stroke-linejoin="round" d="M229 158H230V154H231V152H232V150H233V148H234V144H233V141H232V139H238V140H239V139H242V140H244V142H245V144H246V146H247V147H248V146H249V145H250V144H252V143H253V142H254V141H258V142H260V143H262V144H264V145H266V146H268V147H270V148H273V149H280V148H281V145H282V143H281V142H280V143H276V144H275V145H273V143H274V142H275V141H283V142H284V143H285V144H286V145H287V146H286V149H287V150H285V153H284V152H282V151H281V150H277V151H273V152H271V153H268V154H266V155H265V156H264V158H265V159H263V160H260V161H259V162H258V163H256V165H258V166H259V168H261V170H259V172H258V173H257V175H258V176H259V177H261V178H263V179H264V180H266V181H273V182H271V183H256V184H246V185H242V186H239V187H238V186H237V185H236V183H235V182H234V180H233V176H232V173H231V170H230V168H229Z"/><path class="paint-region" data-region-id="145" data-number="8" data-color="#8f4a1d" fill="#8f4a1d" fill-rule="evenodd" stroke="#716a64" stroke-width=".45" stroke-linejoin="round" d="M39 144H45V158H46V161H47V162H48V164H49V166H50V167H52V166H53V165H54V164H55V163H58V162H59V161H60V160H61V159H62V158H63V157H64V156H65V154H66V153H67V152H68V151H69V150H71V151H74V152H75V153H76V154H77V157H88V156H91V151H82V152H81V153H80V154H79V151H80V150H85V149H97V150H98V151H101V153H100V158H99V159H98V160H97V162H96V163H94V162H93V161H92V160H91V158H85V159H81V160H77V161H76V162H74V163H72V165H71V168H70V174H71V175H70V178H71V180H72V181H73V189H74V191H75V192H77V193H78V194H80V195H86V196H84V197H63V196H62V194H61V192H60V191H59V190H58V189H56V188H55V187H54V186H52V184H51V182H49V181H48V180H47V179H45V178H44V171H43V163H42V161H43V160H42V159H43V158H42V156H40V154H41V153H40V152H39Z"/><path class="paint-region" data-region-id="146" data-number="8" data-color="#8f4a1d" fill="#8f4a1d" fill-rule="evenodd" stroke="#716a64" stroke-width=".45" stroke-linejoin="round" d="M165 156H166V155H169V157H168V159H169V158H170V156H172V158H173V156H175V157H177V156H178V155H179V156H183V157H185V158H187V157H195V158H199V161H197V162H196V163H195V164H204V163H211V162H213V163H212V164H211V165H208V166H203V167H200V168H199V169H198V171H197V173H196V175H195V177H194V179H195V182H196V191H197V196H198V197H202V196H205V197H203V198H198V199H186V198H182V196H183V194H182V192H181V191H180V186H179V184H178V182H177V180H176V179H175V178H173V177H172V176H170V170H169V164H168V163H167V161H166V157H165Z"/><path class="paint-region" data-region-id="147" data-number="8" data-color="#8f4a1d" fill="#8f4a1d" fill-rule="evenodd" stroke="#716a64" stroke-width=".45" stroke-linejoin="round" d="M0 158H7V157H15V159H14V160H12V161H8V162H7V161H3V160H0Z"/><path class="paint-region" data-region-id="148" data-number="8" data-color="#8f4a1d" fill="#8f4a1d" fill-rule="evenodd" stroke="#716a64" stroke-width=".45" stroke-linejoin="round" d="M63 200H64V199H65V200H83V199H90V200H89V201H86V202H84V203H83V204H82V205H81V206H83V205H89V206H86V207H79V208H63Z"/><path class="paint-region" data-region-id="149" data-number="8" data-color="#8f4a1d" fill="#8f4a1d" fill-rule="evenodd" stroke="#716a64" stroke-width=".45" stroke-linejoin="round" d="M37 219H38V216H39V215H41V216H43V217H47V218H53V217H58V218H57V219H54V220H51V221H47V220H45V221H37Z"/><path class="paint-region" data-region-id="150" data-number="8" data-color="#8f4a1d" fill="#8f4a1d" fill-rule="evenodd" stroke="#716a64" stroke-width=".45" stroke-linejoin="round" d="M5 219H11V221H12V222H13V223H14V224H16V225H17V226H20V227H24V228H26V229H28V230H29V231H27V232H26V233H22V234H19V233H18V232H17V231H14V230H13V229H12V228H10V227H9V225H8V223H7V221H5Z"/></g><g class="number-labels"><text class="label number-label" data-region-id="0" x="0.5" y="71.5" font-size="11.5" dominant-baseline="middle" text-anchor="middle">1</text><text class="label number-label" data-region-id="1" x="43.5" y="49.5" font-size="11.5" dominant-baseline="middle" text-anchor="middle">1</text><text class="label number-label" data-region-id="2" x="290.5" y="37.5" font-size="11.5" dominant-baseline="middle" text-anchor="middle">1</text><text class="label number-label" data-region-id="3" x="106.5" y="67.5" font-size="5.5" dominant-baseline="middle" text-anchor="middle">1</text><text class="label number-label" data-region-id="4" x="137.5" y="85.5" font-size="5.5" dominant-baseline="middle" text-anchor="middle">1</text><text class="label number-label" data-region-id="5" x="126.5" y="93.5" font-size="7.4" dominant-baseline="middle" text-anchor="middle">1</text><text class="label number-label" data-region-id="6" x="135.5" y="102.5" font-size="5.5" dominant-baseline="middle" text-anchor="middle">1</text><text class="label number-label" data-region-id="7" x="125.5" y="124.5" font-size="11.5" dominant-baseline="middle" text-anchor="middle">1</text><text class="label number-label" data-region-id="8" x="274.5" y="103.5" font-size="6.6" dominant-baseline="middle" text-anchor="middle">1</text><text class="label number-label" data-region-id="9" x="235.5" y="107.5" font-size="5.9" dominant-baseline="middle" text-anchor="middle">1</text><text class="label number-label" data-region-id="10" x="155.5" y="113.5" font-size="5.5" dominant-baseline="middle" text-anchor="middle">1</text><text class="label number-label" data-region-id="11" x="253.5" y="115.5" font-size="5.9" dominant-baseline="middle" text-anchor="middle">1</text><text class="label number-label" data-region-id="12" x="46.5" y="122.5" font-size="5.5" dominant-baseline="middle" text-anchor="middle">1</text><text class="label number-label" data-region-id="13" x="254.5" y="124.5" font-size="5.5" dominant-baseline="middle" text-anchor="middle">1</text><text class="label number-label" data-region-id="14" x="86.5" y="144.5" font-size="6.6" dominant-baseline="middle" text-anchor="middle">1</text><text class="label number-label" data-region-id="15" x="293.5" y="171.5" font-size="6.8" dominant-baseline="middle" text-anchor="middle">1</text><text class="label number-label" data-region-id="16" x="104.5" y="171.5" font-size="11.1" dominant-baseline="middle" text-anchor="middle">1</text><text class="label number-label" data-region-id="17" x="157.5" y="168.5" font-size="8.2" dominant-baseline="middle" text-anchor="middle">1</text><text class="label number-label" data-region-id="18" x="221.5" y="169.5" font-size="11.5" dominant-baseline="middle" text-anchor="middle">1</text><text class="label number-label" data-region-id="19" x="0.5" y="204.5" font-size="11.5" dominant-baseline="middle" text-anchor="middle">1</text><text class="label number-label" data-region-id="20" x="42.5" y="25.5" font-size="11.5" dominant-baseline="middle" text-anchor="middle">2</text><text class="label number-label" data-region-id="21" x="58.5" y="84.5" font-size="11.5" dominant-baseline="middle" text-anchor="middle">2</text><text class="label number-label" data-region-id="22" x="280.5" y="61.5" font-size="10.0" dominant-baseline="middle" text-anchor="middle">2</text><text class="label number-label" data-region-id="23" x="244.5" y="23.5" font-size="7.4" dominant-baseline="middle" text-anchor="middle">2</text><text class="label number-label" data-region-id="24" x="269.5" y="20.5" font-size="5.9" dominant-baseline="middle" text-anchor="middle">2</text><text class="label number-label" data-region-id="25" x="256.5" y="31.5" font-size="5.5" dominant-baseline="middle" text-anchor="middle">2</text><text class="label number-label" data-region-id="26" x="249.5" y="47.5" font-size="5.5" dominant-baseline="middle" text-anchor="middle">2</text><text class="label number-label" data-region-id="27" x="197.5" y="63.5" font-size="11.5" dominant-baseline="middle" text-anchor="middle">2</text><text class="label number-label" data-region-id="28" x="144.5" y="66.5" font-size="5.9" dominant-baseline="middle" text-anchor="middle">2</text><text class="label number-label" data-region-id="29" x="129.5" y="66.5" font-size="6.6" dominant-baseline="middle" text-anchor="middle">2</text><text class="label number-label" data-region-id="30" x="95.5" y="67.5" font-size="5.5" dominant-baseline="middle" text-anchor="middle">2</text><text class="label number-label" data-region-id="31" x="107.5" y="68.5" font-size="5.5" dominant-baseline="middle" text-anchor="middle">2</text><text class="label number-label" data-region-id="32" x="184.5" y="97.5" font-size="5.5" dominant-baseline="middle" text-anchor="middle">2</text><text class="label number-label" data-region-id="33" x="193.5" y="101.5" font-size="5.5" dominant-baseline="middle" text-anchor="middle">2</text><text class="label number-label" data-region-id="34" x="205.5" y="105.5" font-size="5.5" dominant-baseline="middle" text-anchor="middle">2</text><text class="label number-label" data-region-id="35" x="173.5" y="116.5" font-size="6.6" dominant-baseline="middle" text-anchor="middle">2</text><text class="label number-label" data-region-id="36" x="185.5" y="110.5" font-size="6.6" dominant-baseline="middle" text-anchor="middle">2</text><text class="label number-label" data-region-id="37" x="217.5" y="114.5" font-size="5.5" dominant-baseline="middle" text-anchor="middle">2</text><text class="label number-label" data-region-id="38" x="11.5" y="117.5" font-size="8.2" dominant-baseline="middle" text-anchor="middle">2</text><text class="label number-label" data-region-id="39" x="216.5" y="131.5" font-size="5.5" dominant-baseline="middle" text-anchor="middle">2</text><text class="label number-label" data-region-id="40" x="225.5" y="134.5" font-size="5.5" dominant-baseline="middle" text-anchor="middle">2</text><text class="label number-label" data-region-id="41" x="35.5" y="154.5" font-size="8.2" dominant-baseline="middle" text-anchor="middle">2</text><text class="label number-label" data-region-id="42" x="103.5" y="167.5" font-size="10.6" dominant-baseline="middle" text-anchor="middle">2</text><text class="label number-label" data-region-id="43" x="159.5" y="163.5" font-size="8.2" dominant-baseline="middle" text-anchor="middle">2</text><text class="label number-label" data-region-id="44" x="221.5" y="168.5" font-size="11.5" dominant-baseline="middle" text-anchor="middle">2</text><text class="label number-label" data-region-id="45" x="315.5" y="210.5" font-size="7.4" dominant-baseline="middle" text-anchor="middle">2</text><text class="label number-label" data-region-id="46" x="248.5" y="223.5" font-size="5.9" dominant-baseline="middle" text-anchor="middle">2</text><text class="label number-label" data-region-id="47" x="253.5" y="230.5" font-size="5.9" dominant-baseline="middle" text-anchor="middle">2</text><text class="label number-label" data-region-id="48" x="76.5" y="43.5" font-size="11.5" dominant-baseline="middle" text-anchor="middle">3</text><text class="label number-label" data-region-id="49" x="274.5" y="0.5" font-size="11.5" dominant-baseline="middle" text-anchor="middle">3</text><text class="label number-label" data-region-id="50" x="319.5" y="9.5" font-size="11.5" dominant-baseline="middle" text-anchor="middle">3</text><text class="label number-label" data-region-id="51" x="274.5" y="84.5" font-size="5.5" dominant-baseline="middle" text-anchor="middle">3</text><text class="label number-label" data-region-id="52" x="136.5" y="94.5" font-size="7.4" dominant-baseline="middle" text-anchor="middle">3</text><text class="label number-label" data-region-id="53" x="73.5" y="102.5" font-size="5.9" dominant-baseline="middle" text-anchor="middle">3</text><text class="label number-label" data-region-id="54" x="222.5" y="163.5" font-size="11.5" dominant-baseline="middle" text-anchor="middle">3</text><text class="label number-label" data-region-id="55" x="158.5" y="162.5" font-size="11.5" dominant-baseline="middle" text-anchor="middle">3</text><text class="label number-label" data-region-id="56" x="107.5" y="161.5" font-size="11.5" dominant-baseline="middle" text-anchor="middle">3</text><text class="label number-label" data-region-id="57" x="39.5" y="176.5" font-size="11.5" dominant-baseline="middle" text-anchor="middle">3</text><text class="label number-label" data-region-id="58" x="220.5" y="178.5" font-size="11.5" dominant-baseline="middle" text-anchor="middle">3</text><text class="label number-label" data-region-id="59" x="267.5" y="202.5" font-size="11.5" dominant-baseline="middle" text-anchor="middle">3</text><text class="label number-label" data-region-id="60" x="319.5" y="219.5" font-size="5.9" dominant-baseline="middle" text-anchor="middle">3</text><text class="label number-label" data-region-id="61" x="269.5" y="46.5" font-size="8.2" dominant-baseline="middle" text-anchor="middle">4</text><text class="label number-label" data-region-id="62" x="238.5" y="64.5" font-size="8.2" dominant-baseline="middle" text-anchor="middle">4</text><text class="label number-label" data-region-id="63" x="155.5" y="132.5" font-size="6.6" dominant-baseline="middle" text-anchor="middle">4</text><text class="label number-label" data-region-id="64" x="160.5" y="189.5" font-size="11.5" dominant-baseline="middle" text-anchor="middle">4</text><text class="label number-label" data-region-id="65" x="275.5" y="148.5" font-size="6.8" dominant-baseline="middle" text-anchor="middle">4</text><text class="label number-label" data-region-id="66" x="275.5" y="167.5" font-size="11.5" dominant-baseline="middle" text-anchor="middle">4</text><text class="label number-label" data-region-id="67" x="87.5" y="151.5" font-size="8.4" dominant-baseline="middle" text-anchor="middle">4</text><text class="label number-label" data-region-id="68" x="203.5" y="177.5" font-size="11.5" dominant-baseline="middle" text-anchor="middle">4</text><text class="label number-label" data-region-id="69" x="24.5" y="207.5" font-size="11.5" dominant-baseline="middle" text-anchor="middle">4</text><text class="label number-label" data-region-id="70" x="92.5" y="229.5" font-size="11.5" dominant-baseline="middle" text-anchor="middle">4</text><text class="label number-label" data-region-id="71" x="226.5" y="225.5" font-size="8.2" dominant-baseline="middle" text-anchor="middle">4</text><text class="label number-label" data-region-id="72" x="149.5" y="0.5" font-size="11.5" dominant-baseline="middle" text-anchor="middle">5</text><text class="label number-label" data-region-id="73" x="207.5" y="4.5" font-size="5.5" dominant-baseline="middle" text-anchor="middle">5</text><text class="label number-label" data-region-id="74" x="264.5" y="8.5" font-size="5.5" dominant-baseline="middle" text-anchor="middle">5</text><text class="label number-label" data-region-id="75" x="263.5" y="27.5" font-size="5.5" dominant-baseline="middle" text-anchor="middle">5</text><text class="label number-label" data-region-id="76" x="188.5" y="81.5" font-size="11.5" dominant-baseline="middle" text-anchor="middle">5</text><text class="label number-label" data-region-id="77" x="95.5" y="88.5" font-size="8.2" dominant-baseline="middle" text-anchor="middle">5</text><text class="label number-label" data-region-id="78" x="109.5" y="73.5" font-size="6.8" dominant-baseline="middle" text-anchor="middle">5</text><text class="label number-label" data-region-id="79" x="160.5" y="74.5" font-size="5.9" dominant-baseline="middle" text-anchor="middle">5</text><text class="label number-label" data-region-id="80" x="98.5" y="108.5" font-size="5.5" dominant-baseline="middle" text-anchor="middle">5</text><text class="label number-label" data-region-id="81" x="159.5" y="124.5" font-size="6.6" dominant-baseline="middle" text-anchor="middle">5</text><text class="label number-label" data-region-id="82" x="194.5" y="0.5" font-size="6.6" dominant-baseline="middle" text-anchor="middle">6</text><text class="label number-label" data-region-id="83" x="228.5" y="0.5" font-size="8.2" dominant-baseline="middle" text-anchor="middle">6</text><text class="label number-label" data-region-id="84" x="256.5" y="0.5" font-size="11.5" dominant-baseline="middle" text-anchor="middle">6</text><text class="label number-label" data-region-id="85" x="230.5" y="12.5" font-size="5.5" dominant-baseline="middle" text-anchor="middle">6</text><text class="label number-label" data-region-id="86" x="226.5" y="23.5" font-size="5.5" dominant-baseline="middle" text-anchor="middle">6</text><text class="label number-label" data-region-id="87" x="134.5" y="45.5" font-size="8.2" dominant-baseline="middle" text-anchor="middle">6</text><text class="label number-label" data-region-id="88" x="265.5" y="33.5" font-size="5.5" dominant-baseline="middle" text-anchor="middle">6</text><text class="label number-label" data-region-id="89" x="147.5" y="87.5" font-size="11.5" dominant-baseline="middle" text-anchor="middle">6</text><text class="label number-label" data-region-id="90" x="247.5" y="43.5" font-size="6.6" dominant-baseline="middle" text-anchor="middle">6</text><text class="label number-label" data-region-id="91" x="254.5" y="51.5" font-size="5.5" dominant-baseline="middle" text-anchor="middle">6</text><text class="label number-label" data-region-id="92" x="100.5" y="62.5" font-size="5.5" dominant-baseline="middle" text-anchor="middle">6</text><text class="label number-label" data-region-id="93" x="139.5" y="63.5" font-size="5.5" dominant-baseline="middle" text-anchor="middle">6</text><text class="label number-label" data-region-id="94" x="181.5" y="140.5" font-size="11.5" dominant-baseline="middle" text-anchor="middle">6</text><text class="label number-label" data-region-id="95" x="169.5" y="66.5" font-size="5.5" dominant-baseline="middle" text-anchor="middle">6</text><text class="label number-label" data-region-id="96" x="254.5" y="70.5" font-size="6.8" dominant-baseline="middle" text-anchor="middle">6</text><text class="label number-label" data-region-id="97" x="231.5" y="81.5" font-size="8.4" dominant-baseline="middle" text-anchor="middle">6</text><text class="label number-label" data-region-id="98" x="245.5" y="78.5" font-size="6.6" dominant-baseline="middle" text-anchor="middle">6</text><text class="label number-label" data-region-id="99" x="116.5" y="106.5" font-size="11.5" dominant-baseline="middle" text-anchor="middle">6</text><text class="label number-label" data-region-id="100" x="67.5" y="142.5" font-size="11.5" dominant-baseline="middle" text-anchor="middle">6</text><text class="label number-label" data-region-id="101" x="220.5" y="90.5" font-size="9.6" dominant-baseline="middle" text-anchor="middle">6</text><text class="label number-label" data-region-id="102" x="305.5" y="87.5" font-size="7.4" dominant-baseline="middle" text-anchor="middle">6</text><text class="label number-label" data-region-id="103" x="301.5" y="112.5" font-size="11.5" dominant-baseline="middle" text-anchor="middle">6</text><text class="label number-label" data-region-id="104" x="34.5" y="111.5" font-size="8.2" dominant-baseline="middle" text-anchor="middle">6</text><text class="label number-label" data-region-id="105" x="269.5" y="126.5" font-size="11.5" dominant-baseline="middle" text-anchor="middle">6</text><text class="label number-label" data-region-id="106" x="28.5" y="137.5" font-size="9.6" dominant-baseline="middle" text-anchor="middle">6</text><text class="label number-label" data-region-id="107" x="28.5" y="169.5" font-size="8.2" dominant-baseline="middle" text-anchor="middle">6</text><text class="label number-label" data-region-id="108" x="39.5" y="179.5" font-size="8.9" dominant-baseline="middle" text-anchor="middle">6</text><text class="label number-label" data-region-id="109" x="2.5" y="189.5" font-size="10.4" dominant-baseline="middle" text-anchor="middle">6</text><text class="label number-label" data-region-id="110" x="136.5" y="61.5" font-size="5.5" dominant-baseline="middle" text-anchor="middle">7</text><text class="label number-label" data-region-id="111" x="262.5" y="74.5" font-size="5.5" dominant-baseline="middle" text-anchor="middle">7</text><text class="label number-label" data-region-id="112" x="168.5" y="75.5" font-size="5.5" dominant-baseline="middle" text-anchor="middle">7</text><text class="label number-label" data-region-id="113" x="72.5" y="88.5" font-size="11.5" dominant-baseline="middle" text-anchor="middle">7</text><text class="label number-label" data-region-id="114" x="232.5" y="92.5" font-size="6.6" dominant-baseline="middle" text-anchor="middle">7</text><text class="label number-label" data-region-id="115" x="272.5" y="91.5" font-size="5.5" dominant-baseline="middle" text-anchor="middle">7</text><text class="label number-label" data-region-id="116" x="282.5" y="109.5" font-size="10.0" dominant-baseline="middle" text-anchor="middle">7</text><text class="label number-label" data-region-id="117" x="94.5" y="99.5" font-size="9.6" dominant-baseline="middle" text-anchor="middle">7</text><text class="label number-label" data-region-id="118" x="225.5" y="102.5" font-size="8.9" dominant-baseline="middle" text-anchor="middle">7</text><text class="label number-label" data-region-id="119" x="264.5" y="100.5" font-size="11.5" dominant-baseline="middle" text-anchor="middle">7</text><text class="label number-label" data-region-id="120" x="38.5" y="101.5" font-size="8.2" dominant-baseline="middle" text-anchor="middle">7</text><text class="label number-label" data-region-id="121" x="132.5" y="117.5" font-size="5.5" dominant-baseline="middle" text-anchor="middle">7</text><text class="label number-label" data-region-id="122" x="106.5" y="124.5" font-size="11.5" dominant-baseline="middle" text-anchor="middle">7</text><text class="label number-label" data-region-id="123" x="259.5" y="124.5" font-size="5.5" dominant-baseline="middle" text-anchor="middle">7</text><text class="label number-label" data-region-id="124" x="25.5" y="126.5" font-size="5.5" dominant-baseline="middle" text-anchor="middle">7</text><text class="label number-label" data-region-id="125" x="52.5" y="136.5" font-size="11.5" dominant-baseline="middle" text-anchor="middle">7</text><text class="label number-label" data-region-id="126" x="250.5" y="134.5" font-size="11.5" dominant-baseline="middle" text-anchor="middle">7</text><text class="label number-label" data-region-id="127" x="289.5" y="137.5" font-size="11.5" dominant-baseline="middle" text-anchor="middle">7</text><text class="label number-label" data-region-id="128" x="79.5" y="137.5" font-size="8.2" dominant-baseline="middle" text-anchor="middle">7</text><text class="label number-label" data-region-id="129" x="18.5" y="163.5" font-size="10.6" dominant-baseline="middle" text-anchor="middle">7</text><text class="label number-label" data-region-id="130" x="18.5" y="182.5" font-size="6.8" dominant-baseline="middle" text-anchor="middle">7</text><text class="label number-label" data-region-id="131" x="108.5" y="190.5" font-size="11.5" dominant-baseline="middle" text-anchor="middle">7</text><text class="label number-label" data-region-id="132" x="232.5" y="184.5" font-size="5.5" dominant-baseline="middle" text-anchor="middle">7</text><text class="label number-label" data-region-id="133" x="136.5" y="201.5" font-size="9.6" dominant-baseline="middle" text-anchor="middle">7</text><text class="label number-label" data-region-id="134" x="178.5" y="200.5" font-size="5.5" dominant-baseline="middle" text-anchor="middle">7</text><text class="label number-label" data-region-id="135" x="248.5" y="213.5" font-size="5.5" dominant-baseline="middle" text-anchor="middle">7</text><text class="label number-label" data-region-id="136" x="62.5" y="211.5" font-size="5.5" dominant-baseline="middle" text-anchor="middle">7</text><text class="label number-label" data-region-id="137" x="198.5" y="208.5" font-size="6.8" dominant-baseline="middle" text-anchor="middle">7</text><text class="label number-label" data-region-id="138" x="47.5" y="239.5" font-size="11.5" dominant-baseline="middle" text-anchor="middle">7</text><text class="label number-label" data-region-id="139" x="298.5" y="239.5" font-size="11.5" dominant-baseline="middle" text-anchor="middle">7</text><text class="label number-label" data-region-id="140" x="204.5" y="237.5" font-size="11.5" dominant-baseline="middle" text-anchor="middle">7</text><text class="label number-label" data-region-id="141" x="135.5" y="239.5" font-size="11.5" dominant-baseline="middle" text-anchor="middle">7</text><text class="label number-label" data-region-id="142" x="78.5" y="239.5" font-size="11.5" dominant-baseline="middle" text-anchor="middle">7</text><text class="label number-label" data-region-id="143" x="127.5" y="173.5" font-size="11.5" dominant-baseline="middle" text-anchor="middle">8</text><text class="label number-label" data-region-id="144" x="242.5" y="162.5" font-size="11.5" dominant-baseline="middle" text-anchor="middle">8</text><text class="label number-label" data-region-id="145" x="59.5" y="174.5" font-size="11.5" dominant-baseline="middle" text-anchor="middle">8</text><text class="label number-label" data-region-id="146" x="183.5" y="169.5" font-size="11.5" dominant-baseline="middle" text-anchor="middle">8</text><text class="label number-label" data-region-id="147" x="10.5" y="157.5" font-size="5.9" dominant-baseline="middle" text-anchor="middle">8</text><text class="label number-label" data-region-id="148" x="64.5" y="207.5" font-size="11.5" dominant-baseline="middle" text-anchor="middle">8</text><text class="label number-label" data-region-id="149" x="41.5" y="220.5" font-size="6.6" dominant-baseline="middle" text-anchor="middle">8</text><text class="label number-label" data-region-id="150" x="20.5" y="230.5" font-size="5.9" dominant-baseline="middle" text-anchor="middle">8</text></g></svg>
